<?xml version="1.0" encoding="utf-8"?>
<!-- Generator: Adobe Illustrator 28.2.0, SVG Export Plug-In . SVG Version: 6.00 Build 0)  -->
<svg version="1.1" id="FS" xmlns="http://www.w3.org/2000/svg" xmlns:xlink="http://www.w3.org/1999/xlink" x="0px" y="0px"
	 viewBox="0 0 27 54" style="enable-background:new 0 0 27 54;" xml:space="preserve">
<style type="text/css">
	.st0{fill:#231F20;}
</style>
<path class="st0" d="M26.5,15.7c1.4-1.3-0.6-3.5-1.9-2.2l-5.5,5.2l0.4,2.8l-6.9,3.4l0.1-6.2c4.9-0.6,6.4-7.7,5.9-11.4
	c0.8,0.1,6.6-1.8,4.9-4.4c-0.5-0.6-1.4-0.6-2-0.1c-1.8,1.7-3.4,1.6-3.5,1.6C14.3-4,5.3,1.3,4.7,7.9l-3.9,2.3C-0.6,10.9,0,13,1.4,13
	c0.5,0.1,2.3-1.2,2.8-1.4c-0.1,3.2,2,6.9,5.6,7.2l-0.1,7.9L1,32.7c-1.2,0.8-0.6,2.8,0.8,2.7c0.1,0.5,7.6-5.1,7.9-5.2l-0.1,8.1
	c-2.6,4-4.2,12.8-4.2,14c-0.3,1.9,2.6,2.3,2.8,0.4C8.6,49,10,43,11.6,40.4c1.1,0.9,1.6,13.7,3.9,13.6c0.9,0,1.6-0.8,1.4-1.7
	c-2.2-14.2-3.7-15.3-4.6-15.6l0.1-8.4l7.4-3.6c-0.3,2.4,3,3,3,0.4l-0.3-1.9c0.5-0.6,0.4-1.7-0.3-2.1l-0.2-1.1L26.5,15.7z M11.2,3.1
	c1.5-0.4,2.8,0.2,3.7,1.8L8.1,6.5C8.7,5,9.7,3.5,11.2,3.1z M11.2,15.9c-3.6,0.4-4.5-3.7-4.1-6.1c0.1-0.1,8.5-1.9,8.6-2
	C15.9,10.6,15.2,16.1,11.2,15.9z"/>
</svg>
