<?xml version="1.0" encoding="utf-8"?>
<!-- Generator: Adobe Illustrator 28.2.0, SVG Export Plug-In . SVG Version: 6.00 Build 0)  -->
<svg version="1.1" id="Layer_1" xmlns="http://www.w3.org/2000/svg" xmlns:xlink="http://www.w3.org/1999/xlink" x="0px" y="0px"
	 viewBox="0 0 27 54" style="enable-background:new 0 0 27 54;" xml:space="preserve">
<style type="text/css">
	.st0{fill:#231F20;}
</style>
<path class="st0" d="M26.8,16.2c-0.4-0.6-1.2-0.7-1.7-0.3l-7.3,4.9l0.8,3L13.6,25l0.8-5.4c2.3-0.5,4.1-1.6,5.3-3.3
	c2.7-3.6,2.1-8.5,2-9.2c0-0.1,0-0.2,0-0.3l3.9-0.8c0.7-0.1,1.1-0.8,1-1.5c-0.1-0.7-0.8-1.1-1.5-1L21,4.3c-0.4-0.8-0.9-1.7-1.8-2.5
	c-1.5-1.4-3.6-2-6.2-1.8C7.4,0.5,4.8,4.8,4,7.8L0.9,8.4c-0.7,0.1-1.1,0.8-1,1.5c0.1,0.6,0.6,1,1.2,1c0.1,0,0.2,0,0.2,0l2.3-0.5
	c0.1,1.9,0.6,5.3,2.9,7.4c1.4,1.3,3.1,2,5.2,2l-0.6,4.6l-8.8-6.1C1.8,17.9,1,18,0.6,18.6c-0.4,0.6-0.2,1.4,0.3,1.7l9.8,6.9l-1.1,8
	c-1.1,1.3-5.4,6.2-7.6,11.4c-1.6,2.9-1.6,6-1.6,6.1C0.4,53.4,1,54,1.7,54l0,0c0.7,0,1.2-0.6,1.2-1.2c0,0,0-2.5,1.4-4.9l0.1-0.1
	c1.5-3.6,4.2-7.3,5.9-9.3c1.3,4,4.5,12.2,10.2,14.7c0.2,0.1,0.3,0.1,0.5,0.1c0.5,0,0.9-0.3,1.1-0.8c0.3-0.6,0-1.4-0.6-1.6
	c-6-2.6-9-13.4-9.4-15.1l1.1-8.1l6-1.4l0.4,1.7c0.1,0.6,0.6,0.9,1.2,0.9c0.1,0,0.2,0,0.3,0c0.7-0.2,1.1-0.9,0.9-1.5l-0.4-1.6
	l0.4-0.1c0.7-0.2,1.1-0.8,0.9-1.5s-0.8-1.1-1.5-0.9L21,23.2l-0.4-1.4l5.8-3.9C27,17.6,27.2,16.8,26.8,16.2z M13.3,2.6
	c1.9-0.2,3.3,0.2,4.3,1.1C18,4,18.3,4.4,18.5,4.8L6.8,7.2C7.6,5.4,9.4,2.9,13.3,2.6z M13,17.2c-2,0.2-3.6-0.2-4.7-1.2
	c-1.8-1.7-2.1-4.7-2.1-6.1l13-2.6l0,0.2c0,0,0.7,4.5-1.5,7.4C16.7,16.2,15.1,17,13,17.2z"/>
</svg>
