<?xml version="1.0" encoding="utf-8"?>
<!-- Generator: Adobe Illustrator 28.2.0, SVG Export Plug-In . SVG Version: 6.00 Build 0)  -->
<svg version="1.1" id="Layer_1" xmlns="http://www.w3.org/2000/svg" xmlns:xlink="http://www.w3.org/1999/xlink" x="0px" y="0px"
	 viewBox="0 0 27 54" style="enable-background:new 0 0 27 54;" xml:space="preserve">
<style type="text/css">
	.st0{fill:#990000;}
</style>
<path class="st0" d="M26.9,2.6c-0.1-0.7-0.8-1.1-1.5-1l-5.7,1.3c-0.2-0.3-0.3-0.5-0.6-0.8c-1.4-1.5-3.5-2.2-6.5-2.2
	C10.3,0,8.5,0.8,7.2,2.4c-1,1.2-1.6,2.6-2,3.9l-4.1,1C0.4,7.4,0,8.1,0.1,8.8c0.1,0.6,0.6,1,1.2,1c0.1,0,0.2,0,0.3,0l3.1-0.7
	c-0.1,1.3,0,2.2,0,2.3l0.1,0.3c0,0.1,0.8,2.7,3.6,4.3c0.5,0.3,1,0.5,1.5,0.6v8.5L2,21c-0.6-0.3-1.4-0.1-1.7,0.6S0.2,23,0.9,23.3
	l8.4,4.4L6.5,38.8l-6.2,13c-0.3,0.7,0,1.4,0.6,1.8c0.2,0.1,0.4,0.1,0.6,0.1c0.5,0,0.9-0.3,1.1-0.7l6.2-13.2l0.6-2.6
	c0.9,0.8,2.1,1.9,2.6,2.5c0.8,0.9,2.2,3.5,2.4,6.4c0.2,3.7,4.5,7,5,7.4c0.2,0.2,0.5,0.2,0.7,0.2c0.4,0,0.8-0.2,1-0.5
	c0.4-0.6,0.3-1.4-0.3-1.8c-1-0.7-3.8-3.3-3.9-5.5c-0.2-3.4-1.8-6.3-3-7.9c-0.9-1.1-3.2-3.1-3.8-3.6l1.6-6.4l10.1-3.1l-1.3,12.3
	c-0.1,0.7,0.4,1.4,1.1,1.4h0.1c0.6,0,1.2-0.5,1.2-1.2l2.7-25.5c0.1-0.7-0.4-1.4-1.1-1.4c-0.7-0.1-1.3,0.4-1.4,1.2L22,22.1l-9.8,3v-8
	c0.2,0,0.5,0,0.8,0c1.6,0,3.4-0.3,5.3-0.9l0.3-0.1l0.2-0.2c3.1-3.2,1.8-9.1,1.5-10.3c0,0,0-0.1,0-0.2l5.5-1.3
	C26.6,4,27,3.3,26.9,2.6z M9,4.2c0.9-1,2.1-1.6,3.6-1.6l0,0c1.9,0,3.3,0.3,4.2,1l-8.7,2C8.4,5.1,8.6,4.6,9,4.2z M17.4,13.8
	c-7.9,2.4-9.9-2-10.2-2.8c0-0.6,0-1.5,0.1-2.5L17.9,6v0.1C18.4,7.6,19,11.7,17.4,13.8z"/>
</svg>
