<?xml version="1.0" encoding="utf-8"?>
<!-- Generator: Adobe Illustrator 28.2.0, SVG Export Plug-In . SVG Version: 6.00 Build 0)  -->
<svg version="1.1" id="Layer_1" xmlns="http://www.w3.org/2000/svg" xmlns:xlink="http://www.w3.org/1999/xlink" x="0px" y="0px"
	 viewBox="0 0 27 54" style="enable-background:new 0 0 27 54;" xml:space="preserve">
<style type="text/css">
	.st0{fill:#990000;}
</style>
<path class="st0" d="M26.9,15.1c-0.3-0.6-1.1-0.9-1.7-0.5l-7.3,4l0.3,3.7l-5,2.7v-7c2.4-0.2,4.4-1.1,5.8-2.6
	c2.8-2.9,2.8-7.3,2.8-8.9L25,5.9c0.7-0.1,1.1-0.8,1-1.5s-0.8-1.2-1.5-1l-3,0.6c-0.8-2.1-3-4-8.4-4l0,0C8.6,0,6.3,3.6,5.3,7l-4,0.7
	c-0.7,0.1-1.1,0.8-1,1.5c0.1,0.6,0.6,1.1,1.2,1.1c0.1,0,0.1,0,0.2,0l3-0.6c0,0.3-0.1,0.6-0.1,0.9c0,0.1,0,3.2,2,5.4
	c1.1,1.1,2.4,1.8,4.1,2v6.9l-8.6-5.4c-0.6-0.4-1.4-0.2-1.7,0.4c-0.4,0.6-0.2,1.4,0.4,1.8l9.9,6.2v7.3c-0.1,0-0.3,0.1-0.4,0.2
	c-1.9,1.3-8,13-9.9,16.6c-0.3,0.6-0.1,1.4,0.5,1.7c0.2,0.1,0.4,0.2,0.6,0.2c0.5,0,0.9-0.2,1.1-0.7c3.7-7.1,8.1-15,9.1-15.8l0.1-0.1
	c1.6,0.6,3.1,1.4,3.4,1.8c0.3,0.9-0.5,5.4-1,6.4c-0.2,0.4-0.9,1.7,2.1,7.7c0.2,0.4,0.7,0.7,1.1,0.7c0.2,0,0.4,0,0.6-0.1
	c0.6-0.3,0.9-1.1,0.5-1.7c-1.1-2.2-2.1-4.7-2.1-5.4c0.6-1.4,1.9-6.5,1.1-8.4c-0.6-1.4-2.8-2.5-4.3-3v-7.2l5.2-2.8l0.2,2.1
	c0,0.7,0.6,1.2,1.2,1.2h0.1c0.7,0,1.2-0.7,1.1-1.4L20.8,24l1.4-0.7c0.6-0.3,0.8-1.1,0.5-1.7s-1.1-0.9-1.7-0.5L20.7,21l-0.1-1
	l5.9-3.2C27,16.5,27.3,15.7,26.9,15.1z M13.1,2.5L13.1,2.5c3.8,0,5.3,0.9,5.9,1.9L8.1,6.5C8.9,4.5,10.4,2.5,13.1,2.5z M12,15.5
	L12,15.5c-1.5,0-2.7-0.4-3.5-1.3c-1.3-1.4-1.3-3.5-1.3-3.5c0-0.1,0-0.7,0.2-1.5l12-2.3c0,1.7-0.1,4.7-2,6.7
	C16.1,14.9,14.3,15.5,12,15.5z"/>
</svg>
