<?xml version="1.0" encoding="utf-8"?>
<!-- Generator: Adobe Illustrator 28.2.0, SVG Export Plug-In . SVG Version: 6.00 Build 0)  -->
<svg version="1.1" id="Layer_1" xmlns="http://www.w3.org/2000/svg" xmlns:xlink="http://www.w3.org/1999/xlink" x="0px" y="0px"
	 viewBox="0 0 27 54" style="enable-background:new 0 0 27 54;" xml:space="preserve">
<style type="text/css">
	.st0{fill:#231F20;}
</style>
<path class="st0" d="M26.1,13.5c-0.7-0.2-1.4,0.1-1.6,0.8L22,22.2l-12.4,1c0.2-1.8,0.8-4.7,1.3-7.4c0.7,0.3,1.4,0.5,2.2,0.8
	c1.3,0.4,2.5,0.5,3.4,0.5c4.1,0,5.1-2.9,5.7-4.9l0.1-0.2c0.4-1.1,0.3-3-0.2-4.8l3.7-0.5C26.6,6.6,27,6,27,5.3
	c-0.1-0.7-0.8-1.2-1.4-1.1l-4.3,0.6c-0.2-0.4-0.5-0.9-0.8-1.3c-1.7-2.4-4.1-3.6-7-3.6c-6.1,0-8.6,3.9-9.1,6l0,0.2c0,0,0,0.4,0,0.9
	L1.1,7.4C0.5,7.5,0,8.1,0,8.8c0.1,0.6,0.6,1.1,1.2,1.1c0.1,0,0.1,0,0.2,0l3.4-0.4c0.5,1.6,1.6,3.6,3.8,5.1C8.1,17.1,7,22.4,6.9,24.7
	c0,0,0,0,0,0s0,0,0,0c0,0.3,0,0.5,0,0.7c0.1,0.4,0.2,1,0.4,1.8c0.4,1.8,1.2,4.8,1.2,6c0,0.3,0,0.6,0,1c0.1,1.6,0.2,3.5-1.2,4.6
	c-2.2,1.9-6.5,11.7-7.3,13.7c-0.3,0.6,0,1.4,0.7,1.6c0.2,0.1,0.3,0.1,0.5,0.1c0.5,0,1-0.3,1.2-0.8c2-4.6,5.3-11.6,6.6-12.7
	c0.2-0.1,0.3-0.3,0.4-0.4c1.9,2,7.5,8.3,8.9,13c0.2,0.5,0.7,0.9,1.2,0.9c0.1,0,0.2,0,0.3-0.1c0.7-0.2,1-0.9,0.9-1.5
	c-1.7-5.9-8.9-13.4-10-14.5c0.4-1.4,0.4-2.8,0.3-3.9c0-0.3,0-0.6,0-0.9c0-1.2-0.5-3.3-1-5.7l8.6,5.1L17,37.4l4.2,3.7
	c0.2,0.2,0.5,0.3,0.8,0.3c0.3,0,0.7-0.2,0.9-0.4c0.5-0.5,0.4-1.3-0.1-1.8l-3-2.6l7-21.5C27.1,14.4,26.8,13.7,26.1,13.5z M6.8,6.7
	c0-0.1,0-0.2,0-0.3c0.2-0.6,1.5-4,6.6-4c2,0,3.7,0.9,4.9,2.6c0,0.1,0.1,0.1,0.1,0.2L6.8,6.7z M7.3,9.1l12.3-1.6
	c0.5,1.6,0.6,3.1,0.4,3.7l-0.1,0.2c-0.8,2.4-1.3,4-6.2,2.8C9.8,13.1,8,10.9,7.3,9.1z M11.7,25.6l9.4-0.8l-1.7,5.3L11.7,25.6z"/>
</svg>
