<?xml version="1.0" encoding="utf-8"?>
<!-- Generator: Adobe Illustrator 28.2.0, SVG Export Plug-In . SVG Version: 6.00 Build 0)  -->
<svg version="1.1" id="Layer_2" xmlns="http://www.w3.org/2000/svg" xmlns:xlink="http://www.w3.org/1999/xlink" x="0px" y="0px"
	 viewBox="0 0 40 20" style="enable-background:new 0 0 40 20;" xml:space="preserve">
<style type="text/css">
	.st0{fill:#231F20;}
</style>
<path class="st0" d="M39.9,18.97C39.87,18.79,36.45,0.5,23.77,0.32c-0.06,0-0.12,0-0.18,0c-0.09,0-0.17,0.01-0.26,0.01
	c-0.01,0-0.02,0-0.02,0c0,0,0,0,0,0c-1.59,0.04-3.01,0.38-4.27,0.95c-2.97,0.67-6.88,1.6-9.75,2.38C9.13,3.59,8.93,3.6,8.78,3.72
	C8.72,3.76,8.67,3.81,8.62,3.86C7.44,4.19,6.49,4.5,5.94,4.74c-6.4,3.47-5.59,11.96-5.55,12.31l0.03,0.34l8.68,2.44
	c0.04,0.01,0.08,0.02,0.12,0.02l0,0h12.42l0.67-9.16l3.48-0.1l0.52,9.26l13.69-0.32L39.9,18.97z M1.36,16.61
	C1.28,15.05,1.27,8.41,6.38,5.63C6.54,5.56,6.75,5.48,7,5.4c-3.7,4.23-4.08,10.35-4.12,11.65L1.36,16.61z M3.87,17.32
	c0-0.01,0.01-0.02,0.01-0.03c0-0.08,0.08-8.36,5.23-12.54c0.8-0.22,1.71-0.46,2.66-0.7C6.41,8.69,5.81,16.1,5.74,17.85L3.87,17.32z
	 M6.73,18.13c0.03-1.02,0.45-9.91,6.96-14.3c0.11-0.07,0.18-0.19,0.21-0.31c0.86-0.21,1.73-0.42,2.58-0.62
	c-5.46,4.57-6.9,13.81-7.16,15.95L6.73,18.13z M27.26,18.84l-0.52-9.27l-5.36,0.15l-0.67,9.13H10.32
	c0.32-2.55,2.09-13.37,9.02-16.61c2.11-0.48,3.73-0.84,4.1-0.91c0.05,0,0.1-0.01,0.15-0.01c0.05,0,0.11,0,0.16,0
	C34.38,1.47,38.12,15.53,38.8,18.57L27.26,18.84z"/>
<path class="st0" d="M21,9.32c-0.28,0-0.5-0.22-0.5-0.5V5.88c0-0.22,0.14-0.41,0.35-0.48s0.43,0.01,0.56,0.18l0.86,1.18l0.68-1.88
	c0.07-0.2,0.25-0.35,0.48-0.33c0.21,0,0.4,0.14,0.47,0.35l0.88,2.77c0.08,0.26-0.06,0.54-0.32,0.63c-0.27,0.08-0.54-0.06-0.63-0.32
	l-0.43-1.36l-0.5,1.38c-0.06,0.17-0.22,0.3-0.4,0.33c-0.18,0.02-0.37-0.05-0.47-0.2l-0.51-0.7v1.4C21.5,9.1,21.28,9.32,21,9.32z"/>
<path class="st0" d="M28.41,10.5c-0.03,0-0.06,0-0.09-0.01c-0.27-0.05-0.45-0.31-0.4-0.58l0.48-2.53l-1.35,1.28
	c-0.15,0.14-0.36,0.18-0.54,0.1c-0.18-0.08-0.3-0.26-0.3-0.46V7.48l-0.33,0.78c-0.11,0.25-0.41,0.37-0.66,0.26
	c-0.25-0.11-0.37-0.4-0.26-0.66l1.29-3c0.09-0.22,0.33-0.34,0.56-0.29c0.23,0.05,0.4,0.25,0.4,0.49v2.07l1.63-1.55
	c0.16-0.15,0.39-0.18,0.58-0.08c0.19,0.1,0.29,0.32,0.25,0.53l-0.76,4.06C28.86,10.33,28.65,10.5,28.41,10.5z"/>
<path class="st0" d="M30.79,12.78c-0.31,0-0.66-0.08-1.03-0.28c-0.51-0.28-0.83-0.66-0.97-1.13c-0.22-0.76,0.14-1.44,0.19-1.52
	C29,9.77,29.48,8.62,30.4,8.28c0.41-0.15,0.84-0.12,1.25,0.1l0,0c1.58,0.83,0.92,3.19,0.89,3.29c-0.01,0.04-0.03,0.09-0.06,0.12
	C32.23,12.2,31.62,12.78,30.79,12.78z M30.91,9.19c-0.07,0-0.12,0.01-0.16,0.03c-0.39,0.15-0.75,0.77-0.87,1.05
	c-0.13,0.25-0.41,0.92,0.36,1.35c0.75,0.41,1.22-0.11,1.36-0.3c0.07-0.32,0.33-1.67-0.42-2.06l0,0C31.07,9.21,30.98,9.19,30.91,9.19
	z M32.06,11.53h0.01H32.06z"/>
<path class="st0" d="M20.37,9.76l-1.99-3.71c-0.1-0.19-0.32-0.29-0.54-0.25c-0.22,0.04-0.38,0.22-0.4,0.44l-0.53,5.76
	c-0.02,0.28,0.18,0.52,0.45,0.54c0.02,0,0.03,0,0.05,0c0.26,0,0.47-0.2,0.5-0.45l0.15-1.66c0.04-0.02,0.08-0.01,0.12-0.04l1-0.74
	l0.31,0.57c0.13,0.24,0.43,0.33,0.68,0.2C20.41,10.31,20.5,10.01,20.37,9.76z M18.7,8.77l-0.52,0.39L18.29,8L18.7,8.77
	C18.7,8.77,18.7,8.77,18.7,8.77z"/>
</svg>
