<?xml version="1.0" encoding="utf-8"?>
<!-- Generator: Adobe Illustrator 28.2.0, SVG Export Plug-In . SVG Version: 6.00 Build 0)  -->
<svg version="1.1" id="Layer_2_00000008147766909624725180000007245392934187373998_"
	 xmlns="http://www.w3.org/2000/svg" xmlns:xlink="http://www.w3.org/1999/xlink" x="0px" y="0px" viewBox="0 0 40 20"
	 style="enable-background:new 0 0 40 20;" xml:space="preserve">
<style type="text/css">
	.st0{fill:#990000;}
</style>
<path class="st0" d="M39.9,19c0-0.2-3.5-18.5-16.1-18.6c-0.1,0-0.1,0-0.2,0c-0.1,0-0.2,0-0.3,0c0,0,0,0,0,0l0,0
	c-1.6,0-3,0.4-4.3,0.9c-3,0.7-6.9,1.6-9.8,2.4C9.1,3.6,8.9,3.6,8.8,3.7c-0.1,0-0.1,0.1-0.2,0.1C7.4,4.2,6.5,4.5,5.9,4.7
	c-6.4,3.5-5.6,12-5.6,12.3l0,0.3l8.7,2.4c0,0,0.1,0,0.1,0l0,0h12.4l0.7-9.2l3.5-0.1l0.5,9.3L40,19.5L39.9,19z M1.4,16.6
	c-0.1-1.6-0.1-8.2,5-11C6.5,5.6,6.8,5.5,7,5.4C3.3,9.6,2.9,15.8,2.9,17L1.4,16.6z M3.9,17.3C3.9,17.3,3.9,17.3,3.9,17.3
	c0-0.1,0.1-8.4,5.2-12.6c0.8-0.2,1.7-0.5,2.7-0.7c-5.4,4.6-6,12.1-6,13.8L3.9,17.3z M6.7,18.1c0-1,0.4-9.9,7-14.3
	c0.1-0.1,0.2-0.2,0.2-0.3c0.9-0.2,1.7-0.4,2.6-0.6C11,7.5,9.6,16.7,9.3,18.8L6.7,18.1z M27.3,18.8l-0.5-9.3l-5.4,0.1l-0.7,9.1H10.3
	c0.3-2.5,2.1-13.4,9-16.6c2.1-0.5,3.7-0.8,4.1-0.9c0,0,0.1,0,0.1,0s0.1,0,0.2,0c10.6,0.2,14.4,14.2,15,17.3L27.3,18.8z"/>
<path class="st0" d="M21,9.3c-0.3,0-0.5-0.2-0.5-0.5V5.9c0-0.2,0.1-0.4,0.4-0.5s0.4,0,0.6,0.2l0.9,1.2L23,4.9
	c0.1-0.2,0.2-0.3,0.5-0.3c0.2,0,0.4,0.1,0.5,0.3l0.9,2.8c0.1,0.3-0.1,0.5-0.3,0.6c-0.3,0.1-0.5-0.1-0.6-0.3l-0.4-1.4L22.9,8
	c-0.1,0.2-0.2,0.3-0.4,0.3c-0.2,0-0.4-0.1-0.5-0.2l-0.5-0.7v1.4C21.5,9.1,21.3,9.3,21,9.3z"/>
<path class="st0" d="M28.4,10.5C28.4,10.5,28.4,10.5,28.4,10.5c-0.4-0.1-0.5-0.3-0.5-0.6l0.5-2.5L27,8.7c-0.1,0.1-0.4,0.2-0.5,0.1
	s-0.3-0.3-0.3-0.5V7.5l-0.3,0.8c-0.1,0.2-0.4,0.4-0.7,0.3S24.8,8.1,25,7.9l1.3-3c0.1-0.2,0.3-0.3,0.6-0.3s0.4,0.2,0.4,0.5v2.1
	l1.6-1.6c0.2-0.2,0.4-0.2,0.6-0.1s0.3,0.3,0.2,0.5l-0.8,4.1C28.9,10.3,28.6,10.5,28.4,10.5z"/>
<path class="st0" d="M30.8,12.8c-0.3,0-0.7-0.1-1-0.3c-0.5-0.3-0.8-0.7-1-1.1c-0.2-0.8,0.1-1.4,0.2-1.5c0-0.1,0.5-1.2,1.4-1.6
	c0.4-0.1,0.8-0.1,1.2,0.1l0,0c1.6,0.8,0.9,3.2,0.9,3.3c0,0,0,0.1-0.1,0.1C32.2,12.2,31.6,12.8,30.8,12.8z M30.9,9.2
	c-0.1,0-0.1,0-0.2,0c-0.4,0.1-0.8,0.8-0.9,1.1c-0.1,0.2-0.4,0.9,0.4,1.4c0.8,0.4,1.2-0.1,1.4-0.3c0.1-0.3,0.3-1.7-0.4-2.1l0,0
	C31.1,9.2,31,9.2,30.9,9.2z M32.1,11.5L32.1,11.5L32.1,11.5z"/>
<path class="st0" d="M20.4,9.8l-2-3.7c-0.1-0.2-0.3-0.3-0.5-0.2c-0.2,0-0.4,0.2-0.4,0.4L16.9,12c0,0.3,0.2,0.5,0.5,0.5c0,0,0,0,0,0
	c0.3,0,0.5-0.2,0.5-0.4l0.1-1.7c0,0,0.1,0,0.1,0l1-0.7l0.3,0.6c0.1,0.2,0.4,0.3,0.7,0.2C20.4,10.3,20.5,10,20.4,9.8z M18.7,8.8
	l-0.5,0.4L18.3,8L18.7,8.8L18.7,8.8z"/>
</svg>
