<?xml version="1.0" encoding="utf-8"?>
<!-- Generator: Adobe Illustrator 28.2.0, SVG Export Plug-In . SVG Version: 6.00 Build 0)  -->
<svg version="1.1" id="Layer_1" xmlns="http://www.w3.org/2000/svg" xmlns:xlink="http://www.w3.org/1999/xlink" x="0px" y="0px"
	 viewBox="0 0 36 54" style="enable-background:new 0 0 36 54;" xml:space="preserve">
<style type="text/css">
	.st0{fill:#990000;}
	.st1{fill:none;stroke:#231F20;stroke-linecap:round;stroke-miterlimit:10;}
</style>
<path class="st0" d="M35.6,25.3c-0.1-0.2-0.4-0.4-0.7-0.3l-8.5,3.6c-1.7-5.6-5.8-8.1-7.6-9c-0.5-0.2-0.8-0.3-0.8-0.3
	c-0.6-0.2-1.4,0.1-1.6,0.8c-0.2,0.6,0.1,1.4,0.7,1.6c0,0,0.2,0.1,0.5,0.2c0.2,0.1,0.5,0.3,0.8,0.5l1,4.8l-7.5-0.7
	c0.2-2.1,0.3-3.7,0.1-4.8c2.1-0.4,3.6-1.3,4.4-2.7c1.6-2.5,0.5-5.7,0.5-5.9L17,12.9c-0.2-0.3-3.9-6.5-9.3-4.4
	c-1.3,0.5-2.2,1.3-2.8,2.2l0.3-3.5c0.2-2-2.4-4.7-2.7-5l-2-2.1l1.2,2.6c0,0,0.9,1.9,0.7,4.1c-0.2,2.4,1.2,6.3,1.3,6.5l0.1,0.1
	c-0.2,1.4-0.1,2.7,0.1,3.6l0,0.1c0.6,1.4,2.5,3.9,5.7,4.5c0,0.1,0,0.1,0.1,0.2c0.5,0.9-0.2,5.8-0.7,9C8.2,36,7.7,39.5,8.3,41.4
	L1.7,51.9c-0.4,0.6-0.2,1.4,0.4,1.7c0.2,0.1,0.4,0.2,0.7,0.2c0.4,0,0.8-0.2,1.1-0.6l6-9.4c0.3,0.4,0.7,0.8,1,1.2
	c1.3,1.4,2.6,2.8,3.6,6.7c0.1,0.6,0.6,1,1.2,1c0.1,0,0.2,0,0.3,0c0.7-0.2,1.1-0.8,0.9-1.5c-1.1-4.5-2.8-6.2-4.2-7.8
	c-0.7-0.7-1.3-1.4-1.8-2.3l-0.1-0.1c-0.5-0.9,0.1-5.3,0.5-8.6c1.2,0.7,2.9,1.5,4.8,1.7c0.2,0,0.5,0,0.7,0c1.6,0,3.1-0.5,4-0.9
	l1.6,7.6c-0.5,0.7-0.8,1.1-0.9,1.2c-0.5,0.5-0.4,1.3,0.1,1.8c0.2,0.2,0.5,0.3,0.9,0.3c0.3,0,0.7-0.1,0.9-0.4
	c0.2-0.2,5.2-5.7,3.5-13.7c0-0.1,0-0.2-0.1-0.2l8.6-3.6C35.6,25.9,35.7,25.6,35.6,25.3z M3.9,10.6C3.6,9.4,3.3,8,3.4,6.9
	c0.1-0.8,0-1.5-0.1-2.2c0.5,0.8,1,1.7,0.9,2.3L3.9,10.6z M22.2,30.4c-0.3-0.2-0.6-0.3-1-0.3l-0.1-0.3l2,0.2L22.2,30.4z M19.7,23.1
	c1.2,0.9,2.6,2.3,3.6,4.4l-2.7-0.2L19.7,23.1z M5.8,13.7c0.2-1.3,0.9-2.6,2.7-3.3c1.7-0.7,3.2-0.1,4.4,0.8L5.8,13.7z M5.8,16.5
	c0,0,0-0.1,0-0.1l9-3.1c0.2,0.3,0.4,0.5,0.4,0.6c0.1,0.5,0.6,2.5-0.3,4.1c-0.6,1-1.9,1.6-3.6,1.9C7.6,20,6,17,5.8,16.5z M16.3,31.5
	c-1.9-0.2-3.9-1.4-4.6-1.9c0-0.2,0.1-0.4,0.1-0.6l8.4,0.8l0.2,0.9C19.5,31,18,31.6,16.3,31.5z M23.1,39.4l-1.4-6.7
	c0.2-0.1,0.3-0.2,0.3-0.2c0.4-0.2,0.6-0.7,0.6-1.1l1.8-0.7C25.2,34.3,24.2,37.4,23.1,39.4z"/>
<path class="st1" d="M41.6,35.4"/>
</svg>
