<?xml version="1.0" encoding="utf-8"?>
<!-- Generator: Adobe Illustrator 28.2.0, SVG Export Plug-In . SVG Version: 6.00 Build 0)  -->
<svg version="1.1" id="Layer_1" xmlns="http://www.w3.org/2000/svg" xmlns:xlink="http://www.w3.org/1999/xlink" x="0px" y="0px"
	 viewBox="0 0 36 54" style="enable-background:new 0 0 36 54;" xml:space="preserve">
<style type="text/css">
	.st0{fill:#231F20;}
	.st1{fill:none;stroke:#231F20;stroke-linecap:round;stroke-miterlimit:10;}
</style>
<path class="st0" d="M35.63,25.32c-0.11-0.25-0.4-0.37-0.66-0.27l-8.51,3.58c-1.71-5.55-5.84-8.12-7.62-8.99
	c-0.48-0.24-0.77-0.34-0.77-0.34c-0.65-0.23-1.36,0.11-1.6,0.75c-0.23,0.65,0.09,1.36,0.74,1.6c0.03,0.01,0.22,0.09,0.53,0.24
	c0.23,0.11,0.51,0.27,0.81,0.45l1.02,4.83l-7.51-0.67c0.24-2.1,0.31-3.7,0.09-4.83c2.05-0.37,3.55-1.27,4.43-2.68
	c1.6-2.54,0.54-5.74,0.5-5.87l-0.09-0.19c-0.16-0.27-3.95-6.46-9.28-4.35C6.43,9.09,5.53,9.86,4.9,10.74l0.31-3.53
	c0.18-2.01-2.41-4.67-2.7-4.97L0.46,0.18L1.7,2.81c0.01,0.02,0.89,1.91,0.7,4.06c-0.21,2.4,1.25,6.3,1.31,6.47l0.06,0.15
	c-0.25,1.35-0.14,2.66,0.08,3.56l0.05,0.14c0.59,1.43,2.45,3.91,5.67,4.49c0.02,0.06,0.03,0.12,0.06,0.18
	c0.51,0.92-0.22,5.79-0.7,9.01C8.17,36.01,7.7,39.5,8.28,41.42L1.66,51.91c-0.37,0.58-0.19,1.36,0.39,1.72
	c0.21,0.13,0.44,0.19,0.67,0.19c0.41,0,0.82-0.21,1.06-0.58l5.96-9.44c0.34,0.41,0.69,0.79,1.04,1.15c1.3,1.38,2.64,2.8,3.6,6.65
	c0.14,0.57,0.65,0.95,1.21,0.95c0.1,0,0.2-0.01,0.3-0.04c0.67-0.17,1.08-0.84,0.91-1.51c-1.11-4.48-2.76-6.22-4.21-7.76
	c-0.7-0.74-1.31-1.38-1.8-2.3l-0.06-0.09c-0.54-0.86,0.05-5.32,0.53-8.57c1.16,0.66,2.95,1.49,4.8,1.65
	c0.24,0.02,0.49,0.03,0.73,0.03c1.62,0,3.06-0.47,4.03-0.88l1.59,7.57c-0.47,0.7-0.84,1.12-0.89,1.18c-0.47,0.5-0.44,1.3,0.06,1.77
	c0.24,0.22,0.55,0.33,0.85,0.33c0.33,0,0.67-0.13,0.92-0.4c0.21-0.23,5.23-5.73,3.45-13.67c-0.02-0.09-0.05-0.17-0.07-0.25
	l8.64-3.63C35.61,25.87,35.73,25.58,35.63,25.32z M3.91,10.61C3.59,9.42,3.31,8,3.4,6.95c0.07-0.77,0.02-1.5-0.08-2.15
	c0.53,0.79,0.96,1.66,0.9,2.32L3.91,10.61z M22.18,30.44c-0.27-0.22-0.62-0.32-0.96-0.27l-0.07-0.34l2.05,0.18L22.18,30.44z
	 M19.74,23.15c1.21,0.93,2.59,2.33,3.59,4.36l-2.72-0.24L19.74,23.15z M5.75,13.74c0.25-1.26,0.95-2.61,2.7-3.3
	c1.67-0.66,3.19-0.05,4.37,0.84L5.75,13.74z M5.78,16.49c-0.01-0.03-0.01-0.06-0.02-0.1l9.01-3.14c0.21,0.28,0.37,0.5,0.44,0.62
	c0.14,0.48,0.64,2.54-0.33,4.07c-0.65,1.03-1.89,1.65-3.61,1.86C7.56,20,6.01,16.99,5.78,16.49z M16.28,31.45
	c-1.95-0.17-3.95-1.4-4.63-1.85c0.03-0.21,0.06-0.41,0.09-0.62l8.37,0.75l0.18,0.85C19.54,30.96,17.95,31.6,16.28,31.45z
	 M23.15,39.37l-1.41-6.73c0.18-0.1,0.31-0.17,0.33-0.19c0.4-0.25,0.59-0.69,0.57-1.13l1.75-0.74
	C25.16,34.32,24.18,37.39,23.15,39.37z"/>
<path class="st1" d="M41.62,35.44"/>
</svg>
