<?xml version="1.0" encoding="utf-8"?>
<!-- Generator: Adobe Illustrator 28.2.0, SVG Export Plug-In . SVG Version: 6.00 Build 0)  -->
<svg version="1.1" id="Layer_2" xmlns="http://www.w3.org/2000/svg" xmlns:xlink="http://www.w3.org/1999/xlink" x="0px" y="0px"
	 viewBox="0 0 30 15" style="enable-background:new 0 0 30 15;" xml:space="preserve">
<style type="text/css">
	.st0{fill:#231F20;}
</style>
<path class="st0" d="M29.89,9.83c-0.17-2.23-0.37-4.75-0.13-8.57l0.07-1.08L28.75,0.2c-2.92,0.04-7.93,0.02-8.94-0.18
	c-1.21-0.24-4.42,0.04-8.18,0.41c-1.16,0.11-2.16,0.21-2.51,0.22c-0.61,0.02-2.77-0.14-4.5-0.26C1.83,0.2,1.41,0.18,1.16,0.22
	c-1.12,0.19-1.08,1.09-0.9,5.45c0.03,0.77,0.06,1.44,0.06,1.83c0,1.38-0.03,6.31-0.03,6.31l-0.01,1.04l1.04-0.04
	c0,0,4.92-0.17,6.22-0.23c0.78-0.04,3.02,0.02,4.82,0.07c1.07,0.03,2.01,0.05,2.46,0.05c1.18,0,14.11,0.35,14.24,0.35l1.01,0.03
	l0.01-1.02C30.11,12.59,30,11.25,29.89,9.83z M21.58,12.87c0.08-0.42,0.23-1.03,0.45-1.47c0.51-1.02-0.41-2.68-0.6-3.01
	c-0.14-0.24-0.45-0.32-0.68-0.18c-0.24,0.14-0.32,0.45-0.18,0.68c0.35,0.59,0.77,1.66,0.57,2.05c-0.3,0.61-0.48,1.42-0.57,1.89
	c-2.76-0.07-5.24-0.13-5.75-0.13c-0.44,0-1.36-0.02-2.41-0.05c-1.47-0.04-3.1-0.08-4.16-0.08c-0.33,0-0.6,0-0.8,0.01
	c-0.92,0.04-3.64,0.14-5.15,0.19c0.01-1.53,0.02-4.3,0.02-5.28c0-0.41-0.03-1.12-0.06-1.92c-0.04-0.93-0.1-2.46-0.09-3.35
	c0.63,0.04,1.54,0.1,2.32,0.16c1.5,0.1,3.03,0.21,3.98,0.25c-0.19,0.54-0.4,1.23-0.4,1.62c0,0.82,0.74,1.29,0.82,1.34
	c0.08,0.05,0.17,0.07,0.26,0.07c0.17,0,0.33-0.09,0.43-0.24C9.72,5.2,9.65,4.89,9.41,4.75c0,0-0.34-0.23-0.34-0.49
	c0-0.27,0.24-1.02,0.46-1.62c0.5-0.03,1.28-0.11,2.29-0.21c2.3-0.22,6.58-0.64,7.59-0.44c1.25,0.25,6.06,0.24,8.29,0.23
	c-0.15,3.36,0.03,5.69,0.19,7.77c0.08,1.03,0.16,2.03,0.18,3.05C26.69,13,24.11,12.93,21.58,12.87z"/>
</svg>
