<?xml version="1.0" encoding="utf-8"?>
<!-- Generator: Adobe Illustrator 28.2.0, SVG Export Plug-In . SVG Version: 6.00 Build 0)  -->
<svg version="1.1" id="Layer_1" xmlns="http://www.w3.org/2000/svg" xmlns:xlink="http://www.w3.org/1999/xlink" x="0px" y="0px"
	 viewBox="0 0 800 600" style="enable-background:new 0 0 800 600;" xml:space="preserve">
<g>
	<g>
		<g>
			<g>
				<g>
					<path d="M18.8,23.9c-0.4-9-0.1,4.9-0.4-5.9C18.6,19.2,18.8,20.9,18.8,23.9z"/>
					<path d="M47.9,18.4c29-0.8,67.3,0,99.1-0.5c3.7,0-1,0.4,7.4,0.3c30.8-0.6,79.4-0.2,116.9,0.2l-2.3,0.1
						c7.2,0.1,15.9-0.3,23.5-0.3c0.1,0.1-2.4,0.1-0.7,0.2c1.9-0.2,13.7-0.1,16.9-0.3c3,0.1,2.7,0.3,6.6,0.4l4.3-0.3
						c12.1-0.6,29.3,0,45.7-0.3c-0.8,0.1-2.4,0.1-1.1,0.2c26.4-0.4,59.5-0.3,89-0.5c-1.2,0.1-2.3,0.3-0.5,0.4
						c1.5-0.3,10.6-0.4,18.5-0.4c3.6,0.3,13.6-0.3,22.9-0.1l-0.8,0.1c6.9-0.3,10.2,0.2,15.7-0.2l4.4,0.2c3-0.4,9.9,0.2,15.6,0
						l-0.2-0.1c5.3-0.1,8.1,0.1,13.1,0h0.5c11.6-0.1,18.4,0.1,18.1-0.2c4.1,0.3-11.3,0.1-4.9,0.5c38.2-0.3,77.6-0.3,116.1-0.3
						c4.4,0.1,7.2,0.2,8.1,0.3c3.8-0.1,14.5-0.1,18-0.2c-1.3,0,2.5,0.2,4.5,0.2c7,0.1,7.6-0.4,15.3-0.2c-3.1,0.1-4.1,0.2-3.1,0.3
						c6.6-0.2,15.3-0.2,23.1-0.3c-1.2,0.1-3.1,0.1-2.8,0.2c8.5-0.3,15.5,0.1,22.9-0.1l-2.8,0.2c12,0.2,3.5-0.4,13.9-0.3
						c-2.5,0.1-1.6,0.1-2.1,0.2c2.2-0.1,4.8-0.1,7.6-0.2c2.8,0,5.8-0.1,8.8-0.1c-0.1,6.8-0.2,13.7-0.2,19c0-0.6-0.1-0.4-0.1-0.4
						c-0.1,10.5-0.4,21.4-0.5,33c-0.2,4.2-0.4-1.4-0.6,9.7c0.4-0.4-0.2,18.8,0.4,12.3c-0.2,7.1-0.4,17.4-0.6,24.7
						c-0.4,2.4-0.7,4.5-0.9,6c0.5-4.2-1.2,4.5,0-3.3l-1.1,5.8c0-0.9,1-6,0.5-4.2c-0.6,3.9-2.2,15.3-2.9,18.8
						c-0.8,6.6-1.4,12.8-2.9,22.9c0,0.8,0,1.7,0,2.7c-0.1-5.6-0.4,3.2-0.5-0.6l0.5,16.5c0,3.9-0.3,0.9-0.3,6.5
						c0.1-0.3,0.1,2.2,0.2,3.9c-0.1,1.5-0.1,16.4-0.5,18.1c-0.2,1.7,0-6.4-0.2-2.1c-0.1,7.3,0,7.6-0.1,14.9l-0.1,0.1
						c-0.1,4.8,0,14.2,0.2,8.9c0.1-3.3-0.2,1.3-0.1-3.7c0.2,3.4,0.1,11.8,0,19.1c0-2.5-0.1-2.2-0.2-3.2c0.2,9.8,0.1,20.1,0.1,31.1
						c0.2,0.2-0.3-4.1-0.2-5.7c-0.2,6.6-0.2,13.4-0.2,20.1c-0.6,7.4-1.3,14.4-2,20.5c0.2-1.9,0.3-1,0.3-0.9
						c-0.7,6.7-0.9,6.4-1.2,10.8c-0.2,0.4-0.5,5.5-0.9,10c-0.1,2.3-0.2,1.2,0.2-2.8c-0.5,6.3-2.7,31.4-4.3,45.9
						c0.1-0.3-0.5,8.9-0.8,12.3l-0.1-1.3c-0.4,3-1.1,11.2-1.3,11.7c-0.4,7.1,2.4-27.4,1.7-17.8c-0.4,2.5-0.9,13.4-1.1,11.3
						c-0.3,3.2-0.6,6.4-0.8,9.5c-0.1,1.6-0.3,3.1-0.4,4.7c-0.1,0.8-0.2,1.5-0.2,2.3l-0.3,2.5l-0.4,0.9c0.1-0.3,0.2-0.6,0.4-0.9
						c0-0.3,0-0.5,0.1-0.8c0-0.2,0-0.4,0-0.6c0-0.4,0-0.7,0-0.8c0-0.1-0.1-0.1-0.1,0.2c0,0.2-0.1,0.4-0.1,0.7c0,0.3-0.1,0.7-0.1,1.2
						c-0.1,0.2-0.2,0.5-0.3,0.8c-3.7,8.8-1,2.5-3.9,9.7l-1.8,4.5c0.1,0.4-3.3,7.9-1.7,4.7c-0.6,1-5.3,12.8-5.3,11.8l0.2-1.3
						c-1.6,3.8-2.3,6.3-3.5,9.4c-0.2,0.5-0.7,1.5-0.7,1.3c0.2,0.8-3.9,9.1-5.5,13.7c-3.5,7.9-8.6,20.3-10.4,23.9
						c-1.2,3.1-2.4,6-3.6,9c-0.6,1.5-1.3,3.1-1.9,4.6c-0.7,1.6-1.4,3.3-2.2,5.1c-0.1,0.1-0.1,0.1-0.2,0.2c0.1-0.1,0.1-0.1,0.2-0.2
						c0.3-0.7,0.6-1.6,0.9-2.3c0.3-0.7,0.5-1.2,0.5-1.4c-0.3,0.7-0.6,1.4-0.9,2c-0.3,0.6-0.5,1.2-0.7,1.7c-0.3,0.5-0.6,0.9-1,1.3
						c-0.3,0.4-0.6,0.8-0.8,1.2c-0.6,0.8-1.2,1.7-2.1,2.9c0.5-0.8-5.9,7.5-9.2,11.6c-3.9,5.4-2.3,3.7-2.6,4.3
						c-1.4,1.6-3.2,4-5.2,6.7s-4.1,5.7-6.2,8.4c-1.2,0.8-2.3,1.7-3.4,2.4c-1,0.7-2,1.4-3,2c1.8-1.4,7.7-5.8,3.2-2.7
						c-5.2,3.2-9.7,7.4-17.8,12.9l2.2-1.1c-3.7,2.3-11.6,8.5-11,7.6c-2.6,2-9.4,6.6-8.3,6.3c-0.6,0.4-1.2,0.8-1.9,1.3
						c-2.1,0.1-4.3,0.2-6.5,0.4c-2.1,0.1-4.3,0.3-6.5,0.4c-4.4,0.3-8.9,0.6-13.1,0.9c-8.5,0.6-16.3,1-21,1c-2.3,0.2-8,0.5-6.8,0.6
						c3.8-0.1,5.3-0.5,6.7-0.5c-2.1,0.1-2.5,0.3-2.7,0.3c-5,0.3-8.9,0.5-4.2-0.1c-11.1,0.5-11.4,1.4-25.5,2.2
						c0.6-0.2-0.4-0.2-4.6,0.1l-7.8,0.8c-9.1,0.5-5.2,0-5.4-0.2c-4.9,0.4-10.8,0.8-13,1.1l-5.9,0.1c4.3-0.1-4,0.4-6.3,0.6l2.3-0.2
						c-0.9,0-6.5,0.4-9.4,0.6c0.7,0.1,6.4-0.2,9.6-0.4c-2.5,0.3-6.4,0.5-9.6,0.9c1.1-0.3-7.9,0.4-11.8,0.6c-1.1,0.1-2,0.1-2.7,0.1
						s-1.2,0-1.7,0.1c-0.9,0.1-1.3,0.1-2,0.1c-0.1-0.1-7.3,0-3.8-0.2c1.5,0,3.5,0.1,6,0c-2.9-0.1-2.6-0.3-8.7-0.2
						c-4.6,0.1,1.2,0.5-7.5,0.3c2.3-0.1,2.7-0.2,4.5-0.2l-8.1-0.1l-0.3,0.2c-1.1-0.1-0.3-0.1-0.9-0.1c-2.4,0.2-12.4,0.1-14.3,0.3
						c-4.1,0-8.6-0.2-12.6-0.2h0.8c-4.8-0.1-11.2,0-15.2,0.1h0.2c-2.6,0-8.8,0-12.1,0.1c-6.6-0.2-2.2-0.8-9.5-0.6
						c-6.7,0-10.5,0.4-7.8,0.6c-12.1-0.2-25.7,0.2-36.9-0.1c-1.7,0.1-0.6,0.1-4.2,0.2c-17.7-0.1-37.4,0.3-51.5-0.2
						c5.1-0.1,0.3-0.2,0.2-0.3c-4.2,0.2-5.1-0.2-6.6,0.1c0.4,0.2,0,0.3,5,0.4c-10.6,0.1-26.6,0.1-32.5-0.1c2.9,0.1,0.7,0.2-1.6,0.2
						c0.8-0.3-7-0.4-12.9-0.3l-0.8,0.2l-3.8-0.2c-2.3,0.1-2.5,0.4-8.3,0.2c-0.3-0.1-0.6-0.2-1.7-0.2c-1.3,0-2.7,0.1-4.1,0.1
						c-2.8-0.3-5.8-0.6-8.8-1c-3-0.3-5.9-0.7-8.5-1.1l-5.3-1c-2.8-0.3-7.5-0.8-2.6-0.1c-11.2-1.6-18.4-2.6-21.9-3.3
						c-19.3-1.9-47.3-5.5-69.7-8.5l0.7-0.1c-1.5-0.2-2.5-0.4-3.1-0.4c-0.3,0-0.6-0.1-0.8-0.1c-0.3,0-0.5,0-0.8,0
						c-0.3-0.1-0.6-0.3-1.1-0.5c-0.4-0.2-0.9-0.4-1.8-0.9c1.8,0.8-4-2.4,0.3-0.4c-7.6-4.1-10.1-4.9-15.1-7.5c-0.8-0.2,4.1,2,3,1.7
						c-0.9-0.4-10.6-5.7-11.9-6c-1.9-1.1-0.3-0.5,0.8-0.1l-4.8-2.3c-5.6-3.3,13.4,6.3,7.6,2.8l-4.4-2.2c-4-2.4,11.7,5.6,0.8-0.1
						c-4.8-2.3-9-4-4.9-1.7c-2.8-1.4-4.4-2.2-5.5-2.7c-0.6-0.2-1-0.4-1.4-0.6c-0.2-0.1-0.4-0.1-0.6-0.2c-0.1-0.1-0.2-0.1-0.4-0.2
						c-0.1-0.1-0.3-0.1-0.4-0.2c-0.3-0.3-0.5-0.6-0.9-1c-0.3-0.3-0.6-0.7-1-1.2c-0.8-1-1.9-2.4-3.4-4.4c-1.8-2.7,5.8,7.6,4.6,5.6
						c-3.2-4.6-6.9-8.9-9.8-13c3.2,4.5,0.2,0.9-2-1.9c-3.5-4.9,2.6,3-2.5-3.9c-1-1-5.8-7.3-1.8-1.7c-2.2-2.3-5.3-7.2-8.3-10.8
						c-1.5-2.4,5.8,6.7,0.2-0.9c0.7,1.4-7.3-9.1-4.6-4.9c-2.2-3-2.2-3.4-0.5-1.4c-0.8-1.1-1.6-2.2-2.6-3.4l-0.4-0.5
						c-0.1-0.1-0.2-0.2-0.3-0.4l-0.1-0.4c-0.1-0.4-0.2-0.7-0.4-1.1c-0.2-0.7-0.5-1.4-0.7-2c-0.9-2.6-1.6-4.8-1.6-5.7l-0.8-1.7
						c-0.4-1.6-1-3.9-1.7-6.5c-1.3-4.5-4.7-14.2-4.2-14c-0.5-1.4-3.5-11.6-2.6-7.6c1.8,6.4,2.4,7.2,3.1,10.8
						c-1.1-4.6-2.8-9.1-4-12.7v-0.6c-0.7-2.2-2.2-7.2-2.8-8.5c0.6,1.6,0.4,0.7-0.1-1l-0.9-2.2c-2.8-8.8-0.2-2.2-2.9-10.8l2.2,6.5
						c-0.5-1.4-1.2-4.4-2.5-8.5c-0.7-1.5-1.8-4.5-2.4-5.8c-1.6-4.8-0.4-2.2-2.1-6.9l2.1,6.2c0.4,0.9-0.9-4.3-2.9-10.8
						c-1.3-4.1-3.6-10.4-1.7-3.9c-1-3.3-2.2-7.8-1.3-5.3c-0.3-0.8-0.5-1.9-0.6-2.3c-0.1-0.5-0.2-0.8-0.2-1c-0.1-0.4-0.1-0.2-0.1,0
						c0,0.4,0,0.9-0.6-2.4c-0.3-2.7-1.3-11.1-1.9-16.2l1.4,6.8l-0.7-4.6c1.2,5.9-0.2-3,0.6,0.3c-0.4-3.1-1.1-6.9-1.6-9.9
						c0.8,9.2-2.1-10.1-2.2-7.4c-1.9-12.5-0.1-8-2.6-20.9c0.2,2.2-1-3.9,0.2,3.9c-0.5-3.8-0.8-5.1-1.1-6.6c-0.1-0.7-0.3-1.5-0.5-2.6
						c-0.1-0.5-0.2-1.2-0.3-1.9c-0.1-0.8-0.2-1.7-0.4-2.8c0-0.2,0-0.5,0-0.8c0,0.4,0,0.7,0,0.8c0,0.2,0.1,0.4,0.1,0.5s0,0.2,0.1,0.3
						c0,0.2,0.1,0.3,0.1,0.4c0,0.2,0.1,0.2,0.1,0.2c0-0.1,0-0.2,0-0.5c0-0.1,0-0.2,0-0.4c0-0.1,0-0.2,0-0.5c0-0.4,0-0.4,0-0.6
						s0-0.3,0-0.5c0-0.3,0.1-0.5,0.1-0.6s0.1-0.1,0.1,0.2c0,0.1,0,0.3,0,0.5c0,0.1,0,0.3,0,0.4c0,0.2,0,0.4,0,0.6
						c0.1,0.3,0.2,1.1,0.4,2c-0.2-0.6,0.7,5.5,0.9,7c-0.3-3.2,0.5,0.6-0.6-7.4c-0.1-0.5-0.2-1.1-0.2-1.6c0-2.3-0.1-4.8-0.1-6.6
						c0-1.8-0.1-2.9-0.2-2.5c-0.3,0.2,0,7.5-0.2,4.3c-0.1-9.8,0.3-11.4-0.2-15.4c0,6.2-0.2,7.7-0.4,7.6l-0.1-7.2l0.2,1.4
						c0.1-11.5-0.3-3.4-0.3-14.5c0.1-1.7,0.2-3.5,0.4-5.2c0.2,2.7-0.1,16.2,0.3,14.2c0-7.2-0.3-9.6,0-16.5c0,1.5,0,3.6,0,5.1
						c0-2.6,0.7-5.2,0.5-15.5c-0.1-5.3-0.1-1.4-0.3-1.5c0.1-11.6,0-15.1,0-22.6c0.3,1.5,0.2-13.2,0.4-5c-0.2,3.8-0.4,20.6-0.2,24.7
						c0.5-4.2-0.2,9.1,0.2,11.6c0.1-9.3,0.5-8.9,0.8-10.4c0.1-2.6,0-5.1,0-6.6c-0.2-1.1-0.3,2.3-0.5,2.5c0.2-10.4,0.2-20.4,0-26.1
						c0.2-3.5,0.4-2.4,0.4,1.7c0.2-12.4,0.1-25.6,0.2-37.3c-0.4,7.6-0.1-13.1-0.4-7.9c-0.1,6.3-0.4,11.7-0.6,8.2
						c0-3.9,0.2,0.1,0.3-1.5c-0.2-5,0.3-7.8,0-12.7c0.1,11.3,0.5,2.2,0.8,4.3c-0.2-8.2,0.2,0.3,0.2-7.7c-0.2-8.1-0.3-18.1-0.4-27.1
						c0.3-11.3,0-28.7,0-38.9c0.2-5.3,0.5-1.7,0.6-7.5c0-1.3,0-1.9,0-2c-0.1-0.3-0.1-0.2-0.1,0s-0.1,0.9-0.1,1.1c0,0.3-0.1,0,0-1.1
						c-0.1-0.5-0.3-1.5-0.6-2.9l0.3,0.9c-0.7-2.9-3.7-17.9-4.8-20.7l1,2.9c-0.4-1.8-0.8-3.5-1.2-5c0.1-0.1-0.2-2.2,0.5,0.7
						c-0.1-0.6-0.2-1.1-0.3-1.7c-0.1-5.7-0.6-11.8-0.9-17.9v4.3C19.4,74.7,19.4,67,18.8,56l0.2,0.3v-6.1c0.3,1.6,0.2-4.5-0.2-7.9
						l1.3,17.1c0.1,4.8-0.5-5.2-0.6-2.2c-0.1,2.5,0.4,12.8,0.7,14.5c-0.1-3.9-0.2-4.1-0.4-7.2c0.3-1.3,0.5,4.7,0.8,7.6
						c-0.1-2.1-0.1-5-0.2-5.4c0.3,4,0.5,8.1,0.8,14.8C20.9,77,21.1,84,21,82.3c0.3,0.5,0.6,7,0.9,15.3c0,0.8,0,1.8,0,2.7
						c1.2,5.7,3.3,13.9,5,22c-1.1-3.8-2.4-8.6-3.7-14.3c1.2,5.9,1.4,6.6,2.6,12.6c0.5,1.7,0.9,2.9,1.6,5.5c0.1,1.7,0.2,4,0.2,7.3
						l-0.2,0.4c0.1,7.2,0.4,7.2,0.3,16.3c0,15.6-0.1,31.7-0.1,43.6l-0.2,0.5c0.4,6.6,0.2,22.1,0.4,31c0,3.8-0.1,7.8-0.1,11.7
						s0,7.8,0,11.5c-0.1,7.3-0.1,13.7-0.4,17.6c-0.1,12.5-0.2,24.2-0.3,36.1c0,11.8,0,23.7,0,36.5c0.2,1.6,0.5,3.4,0.7,5.3l-0.9-4.6
						c0.9,4.9,0.3,3.2,1,8c-0.6-5.6,1.3,6.7,1.9,10c1.5,12.3,4,28,5.9,38.8l-0.1,0.5c0.2,1.4,0.5,2.8,0.8,4.2
						c0.1,0.7,0.3,1.4,0.4,2.2c0.1,0.4,0.1,0.7,0.2,1.1c0.1,0.3,0.1,0.6,0.2,1c0.9,2.9,1.8,5.9,2.7,9c1.8,6.2,3.7,12.7,5.7,19.3
						c0.4,1.5,0.9,4,2.1,7.9c2.5,7.1,3.6,10.8,7,21.3c2.3,7.7,6,20.2,8.3,28c0.8,2.4,1.6,4.9,2.3,7.3c0,0.1,0,0.2,0.1,0.2l0.2,0.3
						l0.6,0.8l1.2,1.5l2.4,3.1c3.1,4.1,6.3,8.3,9.4,12.4c6.2,8.2,12.4,16.5,18.7,24.9c8.7,4.5,17.5,9,26.4,13.5l1.9,1.3
						c3.5,1.7,7.1,3.5,10.8,5.4c6.8,0.9,13.8,1.7,20.9,2.6c7.1,0.9,14.3,1.9,21.3,2.8c14,1.8,27.3,3.6,38.5,4.9l-2.5,0.1
						c8,1.2,18.4,2.3,16.4,1.7c8.1,1.2,20.2,2.4,25.3,3.4c0.1,0,0.2,0,0.3,0c1,0,1.9,0,2.7,0c0.8,0,1.6,0,2.3,0
						c1.4,0,2.6-0.1,3.8-0.1c2.3-0.1,4.5-0.1,7.9-0.2c16.7,0.2,22.9,0.1,38.6,0h-3.9c-1.7,0.1-1.9,0.3,2,0.3
						c5.9-0.1,21.6,0.1,15.7-0.4c16.8,0.3,39.2-0.2,55.5,0.2c-1.4-0.1,2.7-0.2,4.5-0.2c14.7,0,30.2,0.3,42,0
						c2.4,0.1-3.7,0.2,2.3,0.2c3.6-0.1,0.1-0.2,4.4-0.2c23.9-0.2,48.4,0.3,70.1,0.2h3.6h1.8c0.6,0,1.2-0.1,1.8-0.1
						c2.4-0.2,4.8-0.3,7.3-0.5c4.9-0.3,9.7-0.7,14.6-1c9.8-0.7,19.5-1.3,29.3-2c19.5-1.3,38.7-2.6,57.2-3.8l-0.4,0.1
						c5.1-0.5,11-0.8,16.8-1.2c2.9-0.2,5.8-0.3,8.6-0.5c1.4-0.1,2.7-0.2,4.1-0.3c0.7,0,1.3-0.1,1.9-0.1c0.6,0,1.5-0.1,1.4-0.1
						c0.7-0.5,1.4-1,2-1.5c0.8-0.6,1.5-1.1,2.1-1.7c2.4-1.6,9.1-6.5,7.5-5.1c3.2-2.5,7.6-5.6,12.5-9c2.4-1.7,5-3.5,7.5-5.3
						s5-3.6,7.5-5.3c0.8-1,1.5-2,2.2-3c0.8-1.1,1.5-2.1,2.3-3.1c-0.8,1-1.2,1.7-2.1,2.9c4.2-5.5,8.2-10.7,12.1-16.1
						c2-2.7,4-5.3,6-8.1c2-2.7,4.1-5.4,6.3-8.3c0.2-0.4,0.4-0.8,0.6-1.3c-0.1,0.4-0.3,0.8-0.5,1.3c-0.4,0.5-0.7,1.1-1.1,1.5
						c-0.3,0.5-0.6,0.9-0.7,1c0.3-0.4,0.6-0.8,1-1.2c0.3-0.4,0.6-0.8,0.9-1.2c0.5-1.2,1-2.4,1.5-3.6c0.5-1.3,1-2.5,1.4-3.6
						c0.9-2.3,1.8-4.3,2.5-5.5c1.3-3.1,0.7-2.3-0.1-0.4c5.8-13.5,11.6-27.4,17.5-41.4c5.8-14,11.7-28.1,17.6-42.2
						c0.4-4.1,0.8-8.2,1.2-12.3c2.7-24.7,0.9-1.4,2.5-21c0.2-1.6-0.1-1.2,0.1-1.4c0.6-7.6,1.7-11.7,1.9-17c-0.5,2.1,0.2-3.5,0-3.7
						c1.7-15.1,2.2-18.1,3.2-30l0.1,0.9c0.4-5.5,0.9-11.3,1.4-17c0.3-2.9,0.5-5.7,0.8-8.5c0.2-2.8,0.5-5.5,0.7-8.1
						c0-1.5,0-2.9,0-4.3s-0.1-2.8-0.1-4.1c0.4-40.2,0.8-79.5,1.2-118.5c2.4-15.4,4.8-30.7,7.2-46.1c0.3-20.7,0.7-41.3,1-62.1
						c0.2-11.3,0.4-22.5,0.6-33.6c-30.5,0-60.8,0-91.3,0c-31.2,0-62.5-0.1-94.3-0.1c-17.8-0.4-19.1-0.4-38.6-0.2
						c0.8-0.1,2-0.1,0.7-0.1c-1,0.3-13.7,0-15.6,0.3c-28,0-53.8,0-82.7,0c4.6,0,6.8-0.3,1.4-0.3l-5.7,0.2l-0.9-0.1
						c-3.7,0-7.7,0.2-3.9,0.3c-72.4,0.3-143.7-0.4-214.6-0.3c-16.8-0.1-40.8,0-59.1,0.1C122,19.5,73.1,19.1,18,19.4
						C18,19.4,25.2,18.6,47.9,18.4z"/>
					<path d="M19.3,34.7c-0.1,1.9,0.1,8.2-0.3,3.2C19.1,37.3,19.1,34,19.3,34.7z"/>
					<path d="M25.9,202.5c0,0.2-0.1,2.4-0.1,2.9c0-2.1-0.2-4-0.1-5.7C25.7,201.9,25.8,201.6,25.9,202.5z"/>
					<path d="M25.8,245.6c-0.1-0.6-0.2-9.9-0.2-15.3C25.6,235.4,25.7,240.5,25.8,245.6z"/>
					<path d="M24.6,285.7c-0.2,3.5-0.2,2.5-0.2-2.2C24.6,283.2,24.6,284.8,24.6,285.7z"/>
					<path d="M24.9,288.6c0,3.3-0.1,5-0.3,6.6C24.8,295,24.7,287.4,24.9,288.6z"/>
					<path d="M29.6,375.6c0.3,2.1,1.1,6.5,1.2,8.5C30.6,381.9,29.2,374,29.6,375.6z"/>
					<path d="M37.4,415.5c0.4,1.3,0.5,1.8,1,3.2c0.6,2.3-0.2-0.1-0.8-2L37.4,415.5z"/>
					<polygon points="680.8,550.1 677.3,552.7 677.7,552.2 					"/>
					<path d="M774,250.7c0-4.4,0.2-3,0.2-3.8C774.2,250.9,774,245.5,774,250.7z"/>
					<polygon points="782.3,77.1 782.3,78.4 782,78 					"/>
				</g>
			</g>
		</g>
	</g>
</g>
<g>
	<g>
		<g>
			<g>
				<g>
					<path d="M711.1,566.2c-0.7,0.7,0.6-0.2-0.4,0.5C710.7,566.5,710.8,566.3,711.1,566.2z"/>
					<path d="M765.4,563.7c-0.8-3.2,0-7.4-0.5-10.9c0-0.4,0.4,0.1,0.3-0.8c-0.6-3.4-0.2-8.7,0.2-12.9l0.1,0.3
						c0.1-0.8-0.3-1.8-0.3-2.6c0.1,0,0.1,0.3,0.2,0.1c-0.2-0.2-0.1-1.5-0.3-1.9c0.1-0.3,0.3-0.3,0.4-0.7l-0.3-0.5
						c-0.6-1.3,0-3.2-0.3-5c0.1,0.1,0.1,0.3,0.2,0.1c-0.4-2.9-0.3-6.6-0.5-9.8c0.1,0.1,0.3,0.2,0.4,0.1c-0.3-0.2-0.4-1.2-0.4-2
						c0.3-0.4-0.3-1.5-0.1-2.5l0.1,0.1c-0.3-0.8,0.2-1.1-0.2-1.7l0.2-0.5c-0.4-0.3,0.2-1.1,0-1.7h-0.1c-0.1-0.6,0.1-0.9,0-1.4v-0.1
						c-0.1-1.3,0.1-2-0.2-2c0.3-0.4,0.1,1.2,0.5,0.5c-0.3-4.2-0.3-8.5-0.3-12.8c0.1-0.5,0.2-0.8,0.3-0.9c-0.1-0.4-0.1-1.6-0.2-2
						c0,0.1,0.2-0.3,0.2-0.5c0.1-0.8-0.4-0.8-0.2-1.7c0.1,0.3,0.2,0.5,0.3,0.3c-0.2-0.7-0.2-1.7-0.3-2.5c0.1,0.1,0.1,0.3,0.2,0.3
						c-0.3-0.9,0.1-1.7-0.1-2.5l0.2,0.3c0.2-1.3-0.4-0.4-0.3-1.5c0.1,0.3,0.1,0.2,0.2,0.2c-0.3-1.1-0.2-2.8-0.3-3.8
						c0,0.1,0.1,0,0.1,0c0-1.2,0.1-2.3-0.1-3.7V477c0.2-0.3,0.4,0.2,0.6-0.9c-0.4,0,0.3-1.9-0.3-1.1c0.3-0.8,0.8-2.4,0.8-2.8
						c0.1,0.2,0.8-1.2,0.6-0.4l0.5-1c0.2-0.2-0.3,0.8,0.1,0.3c0.1-0.5,0.2-1.6,0.4-2.1c-0.1-0.4-0.7,0.1-0.5-0.8
						c0.1,0.1,0.8-1.7,0.9-1.5c-0.3,0.2-0.6,0.5-1,0.9c0-0.3,0.6-1.2,0.5-1.4c-0.2,0.4-0.3,0.5-0.4,0.7c0.1-0.3,0.1-0.9,1-2.8
						c0.4-0.9,0,0.2,0.4-0.8c0.2-0.7-0.1-0.1,0-0.8l0.1-0.3c0.3-0.8-0.1-0.4-0.7,1.2c-0.1,0.3,0.6-1.4,0.2-0.3
						c-0.4,0.9-0.4,0.6-0.3,0.1c0.1-0.2,0.4-0.8,0.6-1.4c-0.3,0.6-0.5,0.8-0.6,0.9s-0.1,0.2-0.2,0.3c-0.5,1.3,0.9-2.1,0.6-1.3
						c0.5-1.4,0.4-1.3,0.2-1.1c-0.1,0.1-0.2,0.3,0.5-1.7c0.1-0.2-0.8,2.3-0.7,1.9c0.2-0.6,1-3,0.8-2.4c0.5-1.5-0.1,0.1-0.2,0.3
						c-0.4,1,0.3-0.8,0.3-0.7c-0.2,0.4-0.4,0.9-0.4,0.9s0.1-0.4,0.6-2.2c-0.1,0.2-0.4,1.2-0.8,2.4c-0.3,0.8-0.5,1.5-0.5,1.4l1-2.9
						c0.6-2,0.1-0.3,0.9-3c-0.6,1.7-0.4,1.2-0.2,0.8c0.2-0.5,0.4-1,0,0.1c0.4-1.3,0.1-0.4-0.2,0.5c-0.3,0.8-0.5,1.5,0.1-0.5
						c0.1-0.3-0.8,2.2-0.2,0.5c0.1-0.2,0.1-0.4,0.2-0.7c0,0.2,0.2-0.5,0.4-1.3c0.4-1.1,0.4-1.4,0.9-2.7c0.1-0.3,0.1-0.4,0.1-0.3
						c-0.4,1.2-0.6,1.7-1.1,3.2l-0.5,1.5c-0.9,3-0.1,0.1-1,3.1c0.4-1.2,0.2-0.6,0.1-0.4c-0.1,0.2-0.1,0.1,0.7-2.2l1.2-3.7
						c-0.2,0.6-1.4,4.2-1.9,5.9c0.1-0.5,0.3-1.1,0.5-1.5c-0.8,2.7-0.8,2.7-0.8,2.6s0.1-0.3-0.6,1.7c0.2-0.7,0.1-0.4,0.1-0.4
						s0-0.1,0.3-1.4c-0.6,1.7-1.1,3.5-1,3c0.2-0.6,0.4-1.2,0.5-1.6c0.2-0.9-0.1,0.2-0.4,1.1c0.2-0.7,0.4-1.7,0.6-2.6
						c-0.5,1.5-0.9,3.2-1.2,4.4c0.4-1.5,0.1-0.7-0.1,0c-0.2,0.8-0.5,1.6-0.2,0.5c0.1-0.5,0.6-2,0.6-2.4c0.3-1.3,0-0.5-0.2,0.5
						c-0.3,0.9-0.5,2-0.5,1.7l-0.4,2c0.1-0.6,0-0.1-0.1,0.3c-0.1,0.3-0.1,0.5,0-0.5c-0.2,0.8-0.1,0-0.4,1.7c0-0.4-0.3,0.4-0.4,0.8
						c-0.2,0.4-0.3,0.6-0.5,0.2c0,0.3-0.2,0.5-0.1,0.8c0.1,0.2,0.1-0.6,0.1-0.4c0,0.1,0,0.4,0,0.5c-0.1,0-0.2,0.3-0.2-0.6
						c-0.2,0.2-0.2,0.7-0.2,1.1s0,0.8-0.1,1c-0.1-0.2-0.2-0.2-0.2,0.1c0,0.1,0,0.2,0,0.3v0.1c0,0.1,0,0.1,0,0.2
						c-0.4,0.9-0.5,0.4-0.8,0.3c-0.2,0.5-0.4,1.1-0.3,1.4l-0.5,0.5c0.4-0.4,0,0.5-0.1,0.7v-0.3c-0.1,0.1-0.3,0.7-0.4,1
						c0.2,0,0.5-0.6,0.6-0.9c0,0.3-0.2,0.7-0.2,1.1c-0.2-0.2-0.5,0.8-0.7,1.1c-0.2,0.4,0,0.6-0.1,0.7c-0.1,0-0.3,0.7-0.3,0.3
						c0-0.2,0.3-0.3,0.3-0.6c-0.2,0.3-0.4,0.2-0.5,0.8c-0.1,0.5,0.5,0,0,0.9c0-0.3,0-0.3,0-0.5l-0.5,0.8l0.2,0.1
						c-0.1,0.1-0.1,0-0.1,0c0.1,0.3-0.4,1.3-0.3,1.6c-0.1,0.4-0.5,0.8-0.7,1.2v-0.1c-0.3,0.4-0.5,1.1-0.5,1.6l0,0
						c-0.1,0.3-0.3,0.9-0.4,1.3c-0.4,0.6-0.9-0.1-0.9,0.8c-0.3,0.7,0,1.2,0.2,1c-0.6,1.2-0.7,2.8-1.4,3.8c0,0.2,0.1,0.1,0,0.5
						c-0.7,1.8-1.1,4-2,5.3c0.1-0.6-0.2-0.1-0.3-0.1c0,0.5-0.4,0.5-0.1,0.7c0.2,0,0.3,0.1,0.5-0.4c-0.3,1.1-0.8,2.8-1.2,3.4
						c0.2-0.3,0.2,0,0.1,0.2c-0.3-0.2-0.6,0.6-0.7,1.3l0.2,0.2l-0.3,0.3c0,0.3,0.3,0.4-0.1,0.9c-0.1,0-0.2,0-0.3,0.1
						c-0.1,0.7-0.1,1.7-0.5,2.3l-0.5,0.5c-0.1,0.3-0.1,0.9,0.2,0.4c-0.6,1.1-0.8,1.9-1.2,2.2c-0.1,2.2-1.1,5.2-1.9,7.5l-0.1-0.1
						c-0.3,0.6,0.1,0.4-0.1,0.8c-0.1-0.3-0.4,0.4-0.4-0.2c-0.4,0.9-0.1,1.3-0.3,1.9c0.2,0.2,0-0.5,0.2-0.3c0,0.1-0.6,1.2-0.3,1.4
						c-0.2,0.2-0.3-0.1-0.4-0.2l-0.1,0.6c-0.5,0.6-0.1-1.7-0.7-1.2l-0.1,0.5c-0.5,0.4,0.1-1.5-0.4-0.2c-0.1,0.6,0.2,1.2,0.5,0.8
						c-0.3,1.2,0.5,0.8,0,2c-0.3,0.3,0.3-1,0-0.8c-0.4,0.5-0.3,1.2-0.5,1.7c0.3-0.5,0.4,0,0.3,0.4c-0.3,0.6-0.1-0.5-0.5,0.4
						c0.1,0.2,0,1.1,0.3,0.4c0.3,0.4-0.4,0.9-0.3,1.5c-0.4,0.2-0.3-1.1-0.7-0.2c0.3-0.1-0.1,1.3,0.5,0.9c-0.2,0.4-0.4,0.3-0.5,0
						c-0.3,0.5,0,1.5-0.5,1.5l0.2,0.3c-0.1,0.1-0.3,0.4-0.5,0.6c-0.2,0.5-0.2,1.7-0.5,1.5c0,0.2-0.4,1.3,0,0.9
						c0.4-0.6,0.1-0.9,0.6-1.1c-0.5,0.4-0.3,1-0.3,1.4h-0.2c0,0.3-0.2,0.8-0.1,1c0-0.2-0.2-0.1-0.3,0l0.1,0.3
						c-0.2,1-0.5,0.1-0.7,1.1l0.1-0.8c0,0.2-0.3,0.4-0.4,0.9c0.1,0.2,0.3,0.7,0.4,0.9c-0.1,0.6-0.3,0.2-0.3,0.8v-0.8
						c0-0.1-0.5,0.3-0.7,1.1c-0.1,0.5,0,1.3,0.3,0.6c-0.1,0.4-0.4,0.8-0.5,0.5c-0.2,0.8,0.3,0,0.1,0.7c-0.2,0.2-0.7,1.1-1.1,1.5
						l-0.1-0.8l-0.2,0.5c-0.1-0.7-0.3,0.2-0.5-0.2c-0.2,0.3-0.2,0.7-0.2,1.1c0.8-0.8,0.3,1.3,0.8,1.1c0,0.1-0.1,0.4-0.2,0.5
						c-0.1,0.2-0.1,0.3-0.2,0.4c-1,0.7-1.2,0-1.7,1.3c0.2-0.1,0,0.6,0.5-0.1c-0.6,0.6-0.1,0.7-1,1.3c0.4-0.7-0.9,0.3-0.3-0.7
						c0.1,0.2,0.5-0.4,0.6-0.5c-0.4,0.1-0.3-0.4-0.9,0.3c-0.4,0.4-0.9,0.9-0.6,1c0.2,0.2,0.6-0.6,0.5-0.2c-0.7,0.8-1.1,0.7-1.1,1.3
						c0.5-0.5,0.8-0.4,0.9-0.3l-0.5,0.6v-0.2c-1,0.8,0,0.5-0.9,1.3l-0.6,0.2c0-0.4,1.4-1.2,0.9-1.3c-0.6,0.6-0.6,0.9-1.2,1.4
						c0.1-0.1,0.2-0.3,0.3-0.5c-0.2,0.2-0.9,0-1.4,1c-0.3,0.5,0,0.2,0.1,0.4c-0.9,0.9-1,1.3-1.6,1.9c-0.1-0.4-1.1,1-0.7,0.1
						c0.4-0.2,1.7-1.5,1.8-2c-0.6,0,0.8-0.7,0.7-1.2c-0.7,0.7-1,0.4-1.3,0.3c-0.2,0.2-0.3,0.5-0.4,0.6c0.1,0.3,0.3,0,0.5,0.2
						c-0.9,0.8-1.5,1.6-1.8,2.3c-0.4,0.2-0.4-0.1-0.1-0.4c-0.9,1-2,2-2.9,2.9c0.9-0.3-1,1.1-0.3,0.9c0.6-0.4,1.2-0.6,1-0.3
						c-0.3,0.3-0.1-0.1-0.3-0.1c-0.2,0.5-0.9,0.4-1,1c0.8-1-0.2-0.5-0.2-0.9c-0.5,0.8-0.1-0.2-0.8,0.4c-0.5,0.8-1.2,1.6-1.8,2.4
						c-1.1,0.7-2.2,2.2-3,3c-0.5,0.3-0.5-0.2-1,0.2c-0.5,0.5,0.7-0.1-0.2,0.5v-0.1c-0.2,0.3-1.6,1.3-1.5,1.8v-0.5
						c-0.2,0.1-0.2,0.3-0.3,0.5c-0.1-0.1-0.3,0-0.2-0.3c-0.7,0.3-1,1-1.5,1.6l0.5-0.2c-0.8,1-1.5,1.5-2.3,2.4l-0.1-0.2l-0.4,0.6
						c0-0.3-0.6,0.1-0.7,0.5l1-1.7c0.5-0.3-0.2,0.6,0.2,0.5c0.3-0.1,1.1-0.9,1.1-1.2c-0.3,0.3-0.3,0.3-0.5,0.6
						c-0.3-0.1,0.2-0.6,0.2-0.9c-0.2,0.2-0.4,0.3-0.4,0.4c0.2-0.4,0.5-0.8,1-1.3c-0.3,0.4,0.3-0.1,0.3,0.1c-0.2-0.2,0.3-0.8,1-1.4
						c0.7-0.2,1.1-1.4,1.9-2.1c-0.1,0.5-0.3,1-0.7,1.6c0.6-0.4,0.5-0.5,1.1-0.9c0.1-0.4,0-0.8,0.6-1.5l0.2,0.1
						c0.5-0.6,0.3-0.8,1-1.5c1.3-1.1,2.5-2.4,3.5-3.3l0.2,0.1c0.2-0.8,1.6-1.8,2.2-2.7c1.3-1,2.4-2.7,3.3-3.1c2-2.2,3.7-4.1,5.9-6.2
						l-0.2,0.6c0.2-0.5,0.4-0.1,0.7-0.5c-0.6,0.3,0.3-0.7,0.5-1.1c0.2-0.2,0.3-0.2,0.4-0.3c0-0.1,0.1-0.2,0.1-0.3l0.1-0.4
						c0.1-0.3,0.2-0.6,0.2-0.9c0.1-0.6,0.2-1.2,0.3-1.7h0.2c0-1.3,0.8-2.6,1.3-4c0.1-0.1,0.4-0.3,0.5-0.8c0-0.9,0.1-1.3,0.3-2.5
						c0.3-0.8,0.8-2.2,1.2-3c0.6-3.3,2-6.4,2.8-9.8l0.3-0.2c0.6-3.3,2.3-7.1,3-9.9l0.3,0.4c0.4-0.8,0.5-2,0.2-1.9
						c0.4-0.8,0.5-2.2,1-2.6c0.4-0.8,0.2-1.1,0.4-1.9c0.7-1.7,0.9-2.4,1.4-4l-0.2,0.4c0,0.2,0.2,0.3,0.3-0.1
						c0.1-0.7,0.9-2.2,0.2-1.8c0.9-1.7,1.2-4.2,2.1-5.8c-0.2,0.1-0.1-0.3-0.1-0.6c0.5-1.5,1.3-3.1,1.6-4.4c0.2-0.2,0.1,0.5,0.3-0.1
						c0.1-0.4-0.2-0.1-0.1-0.5c0.7-2.5,2.2-4.9,3.1-7.1c0.7-2,1.4-4.1,2.2-6.1c1.4-3.6,2.8-7.1,4.2-10.4v0.4c0.5-1.7,1-2.8,1.5-3.7
						c0.5-1,0.9-1.8,1.5-4.1c0.1-0.1,0.8-1.8,0.4-0.4c0.5-1.5,0.9-2.5,1.3-3.4c0.4-1,0.9-1.9,1.6-4.1c0-0.1,0.1-0.2,0.1-0.3
						c0,0,0,0,0,0.1c-0.1,0.2-0.1,0.4-0.2,0.7c0-0.1,0.1-0.1,0.1-0.2c0,0.4,0.2,0,0.4-0.3s0.3-0.6,0.4-0.3c-0.1,0.3-0.2,0.5-0.3,1.1
						c-0.1,0.4,0.2-0.3,0.3-0.8c0.2-0.5,0.3-0.7,0,0.4c0.1-0.2,0.3-1.2,0.3-1c0.2-0.1,0.7-0.8,1-1.4c0.4-0.6,0.8-1.2,1.1-1.5
						c0,0.1,0,0.2,0.1,0.3c0,0.4-0.1,0.8-0.2,0.9c0,0.1-0.1,0.2,0,0.4c-0.1,0.2,0.1-0.2,0-0.1c0,0.1-0.1,0.4-0.2,0.8
						c-0.1,0.4-0.2,0.8-0.1,0.6c0.3-0.8,0.1-0.2,0.3-0.7c-0.2,1.1-0.7,2.4-0.4,2.2l-0.2,0.6c0.3-0.5,0.4-0.4,0.5-0.3
						c0.1,0,0.2,0,0.9-1.3c0.1,0.1,0.1,0.2,0.2,0.3c-2.6,11.1-5.2,21.8-7.8,32.6c0,0.5,0,1,0,1.5c-0.1,8.2,0.1,16.3-0.1,24.6
						c-0.4,2-0.4,2.1-0.2,4.3c-0.1-0.1-0.1-0.2-0.1-0.1c0.3,0.1,0,1.5,0.3,1.7c-0.1,3.1,0,5.9,0,9.1c0-0.5-0.3-0.8-0.3-0.2l0.2,0.6
						l-0.1,0.1c0,0.4,0.2,0.9,0.3,0.4c0.3,8-0.4,15.8-0.3,23.6c-0.1,1.9,0,4.5,0.1,6.5c-0.4,6-0.8,11.4-0.5,17.4
						C766.4,567,765.6,566.2,765.4,563.7z"/>
					<path d="M711.9,565.3c0.3,0,0.8-0.5,0.6,0.1C712.3,565.3,712,565.4,711.9,565.3z"/>
					<path d="M726.2,553.4c0-0.1,0.2-0.1,0.3-0.2c-0.2,0.2-0.2,0.4-0.4,0.5C726.3,553.5,726.2,553.5,726.2,553.4z"/>
					<path d="M729.6,550.1c0.1,0.2-0.6,1-1,1.4L729.6,550.1z"/>
					<path d="M733.2,547.4c0.4-0.2,0.3-0.1,0,0.3C733.1,547.6,733.2,547.5,733.2,547.4z"/>
					<path d="M733.2,546.9c0.3-0.3,0.4-0.3,0.6-0.4C733.7,546.4,733.3,547.2,733.2,546.9z"/>
					<path d="M740.2,539.4c0.1-0.2,0.1-0.7,0.3-0.9C740.4,538.7,740.4,539.6,740.2,539.4z"/>
					<path d="M741.4,535.1c0.1-0.1,0.1-0.2,0.1-0.4c0.1-0.2,0.2,0.1,0.1,0.3L741.4,535.1z"/>
					<polygon points="765.6,464.9 765.4,465.5 765.6,464.6 					"/>
					<path d="M766.9,464.7c0.2-0.3-0.4,1.1-0.5,1.3C766.5,465.8,766.9,464.9,766.9,464.7z"/>
					<polygon points="764.8,476.2 764.8,476.1 765.1,476.1 					"/>
				</g>
			</g>
		</g>
	</g>
</g>
<g>
	<g>
		<g>
			<g>
				<g>
					<path d="M53.2,557.9c0.7,0.6-0.1-0.5,0.5,0.4C53.5,558.3,53.4,558.2,53.2,557.9z"/>
					<path d="M82.4,555.8c-0.7-1.3-1.4-2.7-2.1-4.2s-1.6-3-2.6-4.2c-0.2-0.3,0.4-0.1-0.1-0.8c-2.1-2.2-4.4-6.3-6.2-9.5l0.2,0.1
						c-0.3-0.6-1.1-1.1-1.5-1.7c0.1-0.1,0.2,0.1,0.2-0.1c-0.3,0-0.9-1-1.2-1.2c-0.1-0.3,0.1-0.4-0.1-0.7l-0.5-0.2
						c-1.2-0.6-1.7-2.3-2.9-3.4c0.1,0,0.2,0.1,0.2,0c-1.8-1.8-3.7-4.4-5.6-6.6c0.1,0,0.3,0,0.3-0.2c-0.3,0.1-0.9-0.6-1.4-1.2
						c0-0.5-1-0.9-1.4-1.7h0.1c-0.6-0.3-0.5-0.9-1.1-1.1l-0.1-0.5c-0.5,0-0.4-0.9-0.9-1.2l-0.1,0.1c-0.4-0.3-0.4-0.7-0.8-1v-0.1
						c-0.8-0.8-1-1.5-1.2-1.2c0-0.5,0.8,0.8,0.7,0.1c-2.6-2.7-4.9-5.7-7.3-8.6c-0.2-0.4-0.3-0.6-0.3-0.8c-0.3-0.2-0.9-1-1.3-1.2
						c0.1,0.1,0-0.3-0.1-0.5c-0.2-0.3-0.3-0.4-0.5-0.5c-0.2-0.2-0.3-0.4-0.4-0.8c0.2,0.3,0.3,0.3,0.4,0.2c-0.4-0.5-0.7-1.3-1-2
						c0.1,0.1,0.2,0.3,0.3,0.2c-0.5-0.7-0.4-1.4-0.8-2.1l0.3,0.2c-0.2-1.2-0.5-0.2-0.7-1.2c0.1,0.2,0.2,0.1,0.3,0.1
						c-0.6-0.8-1-2.2-1.4-3.1h0.1c-0.4-0.9-0.6-2-1.1-3c0-0.4,0.5,0,0.1-1c-0.3,0.2-0.7-1.7-0.9-0.9c-0.2-0.9-0.6-2.3-0.9-2.8
						c0.3,0.3,0.3-0.6,0.6,0.1V487c0.2,0,0.1,0.6,0.3,0.3c-0.1-0.4-0.6-1.4-0.7-1.7c-0.4-0.6-1-1.1-1.5-2.2c0.3,0.5,0.3-0.4,0.5-0.1
						l-1.2-1.3c-0.1-0.4,0.3-0.2,0-0.7c-0.1,0.1-0.2-0.1-0.3-0.3c0-0.1-0.6-1.5-0.3-1.7c0.1-0.2,0.3,0.6,0.3,0.1
						c-0.2-0.7-0.4-0.7-0.6-1.3l0,0c-0.1-0.5-0.6-1.2-0.6-0.7c0.1,0.3,0.2-0.2,0.2,0.3c-0.3-0.2-0.6-1-0.8-1.7
						c0.1,0.2,0.2,0.2,0.3,0.2c-0.6-0.8-1-1.7-1.4-2.7c-0.2,0,0.4,0.3,0.4,0.4c-0.2-1.4-1.2-2.5-1.2-3.7c0.1,0.2-0.2,0.2-0.2,0.1
						c-0.2-0.6,0.1-0.7-0.2-1.1c0.1-0.1-0.2-0.5-0.4-0.9c-0.2-0.2,0-0.1,0.2,0.2c-0.3-0.5-1.3-2.8-1.5-4.2c-0.1,0.1-0.6-0.7-0.7-1
						h0.3c0-0.3-0.4-1.1-0.2-1.1c-0.5-0.7,1.1,2.4,0.6,1.6c0.1-0.3-0.8-1.1-0.4-1c-0.1-0.2-0.1-0.3-0.2-0.4s-0.1-0.2-0.1-0.2
						c-0.1-0.1-0.1-0.3-0.1-0.5c0,0.1,0.4,0.1,0.2-0.3c-0.2-0.5-0.1-0.1-0.3-0.4l-0.1-0.1c-0.1,0.3-0.1-0.5-0.2,0.1
						c0.1-0.4-0.2-0.3-0.1-1.1l0.1-0.6c-0.1-0.2-0.2,0.3-0.3,0.5c0-0.1,0-0.3,0-0.4c0,0.6-0.1,0.5-0.1,0.3s-0.1-0.5-0.1,0
						c-0.1-0.4-0.1-0.7-0.2-1s-0.2-0.6-0.2-1.3c-0.1,0.2,0,0.8-0.2,0c0-0.2,0-0.1,0-0.6c-0.2-0.9-0.1-0.4-0.1-0.2
						c0-0.3-0.3-1.6-0.6-2.9c0-0.1,0-0.1,0-0.2c0.1,1.2,0.4,2.5,0.5,3.4c-0.2-1.1-0.1-0.5-0.1,0.2c0.1,0.6,0.2,1.2,0,0.5
						c-0.1-0.4-0.2-1.6-0.3-1.8c-0.2-0.9-0.1-0.2,0,0.5s0.2,1.5,0.1,1.4l0.4,1.3c-0.1-0.4-0.1,0,0,0.3c0,0.3,0.1,0.4-0.1-0.3
						c0.1,0.6-0.1,0.2,0.2,1.2c-0.2-0.1-0.1,0.5-0.1,0.9s0,0.7-0.4,0.7c0.1,0.2,0,0.5,0.2,0.5c0.2-0.1-0.1-0.4,0-0.4
						c0,0.1,0.1,0.2,0.2,0.2c-0.1,0.2-0.1,0.4-0.4,0c-0.1,0.2,0,0.3,0,0.4s0.1,0.2,0.2,0.4c0.2,0.3,0.3,0.7,0.3,1.3
						c-0.1-0.1-0.2,0-0.2,0.4l0.3,0.8c-0.1,0.9-0.3,0.5-0.6,0.5c0,0.5,0,1,0.2,1.3l-0.3,0.6c0.2-0.4,0.2,0.4,0.2,0.6l-0.1-0.2
						c-0.1,0.1,0,0.6,0,0.9c0.2-0.1,0.2-0.6,0.3-0.9c0.1,0.2,0.1,0.6,0.2,0.9c-0.2-0.1-0.2,0.8-0.2,1.1c-0.1,0.4,0.2,0.5,0.2,0.6
						c-0.1,0,0,0.7-0.2,0.4c0-0.1,0.1-0.3,0-0.6c-0.1,0.3-0.3,0.3-0.2,0.8c0.1,0.4,0.5-0.1,0.3,0.7c-0.1-0.2-0.2-0.3-0.2-0.4
						l-0.1,0.8h0.2c-0.1,0.1-0.1,0-0.1,0.1c0.2,0.2,0.1,1.2,0.3,1.4c0,0.4-0.2,0.8-0.2,1.2v-0.1c-0.1,0.5,0,1.1,0.1,1.5l0,0
						c0,0.3,0,0.9,0.1,1.2c-0.2,0.6-0.8,0.2-0.6,0.9c0,0.6,0.4,1,0.6,0.8c-0.2,1.2,0.2,2.5-0.1,3.6c0.1,0.2,0.1,0.1,0.2,0.4
						c-0.1,1.7,0.3,3.6-0.2,5c-0.1-0.5-0.2,0-0.3,0c0.2,0.4-0.2,0.5,0.1,0.6c0.2,0,0.3,0,0.4-0.5c0.1,1,0.1,2.6-0.1,3.1
						c0.1-0.3,0.2-0.1,0.2,0.2c-0.3-0.1-0.4,0.7-0.3,1.2l0.2,0.1l-0.2,0.4c0,0.1,0.1,0.2,0.2,0.3c0,0.1,0.1,0.1,0.1,0.2
						c0,0,0,0.1-0.1,0.1s-0.1,0-0.2,0.1c0,0,0.1,0,0.1,0.1s0.1,0.1,0.1,0.2c0.1,0.1,0.2,0.3,0.3,0.5c0.2,0.3,0.3,0.7,0.3,1l-0.1,0.6
						c0.1,0.2,0.4,0.6,0.4,0.1c0.2,1.1,0.4,1.8,0.3,2.2c1.2,1.6,2.1,4.1,2.8,6.2h-0.2c0.1,0.6,0.3,0.2,0.4,0.6
						c-0.2-0.1-0.1,0.5-0.5,0.1c0.1,0.8,0.6,0.9,0.8,1.4c0.2,0-0.3-0.4,0-0.4c0.1,0.1,0.3,1.1,0.6,1.2c0,0.2-0.3,0.2-0.4,0.1
						l0.3,0.4c-0.1,0.7-1.1-1.1-1.2-0.4l0.2,0.4c-0.1,0.5-0.7-1.1-0.4,0.1c0.3,0.4,0.9,0.7,0.8,0.2c0.4,1,0.8,0.2,1.2,1.3
						c-0.1,0.4-0.4-0.9-0.5-0.6c0,0.6,0.5,1,0.6,1.5c-0.1-0.5,0.4-0.2,0.5,0.1c0.1,0.6-0.4-0.3-0.1,0.5c0.2,0.1,0.6,0.7,0.5,0.1
						c0.5,0.2,0.2,0.8,0.6,1.2c-0.2,0.3-0.9-0.6-0.7,0.3c0.2-0.2,0.7,0.9,0.9,0.3c0.1,0.4-0.1,0.5-0.4,0.3c0,0.5,0.9,1,0.5,1.3
						l0.3,0.1c0,0.2,0,0.4,0,0.7c0.2,0.4,0.8,1.2,0.5,1.3c0.1,0.1,0.4,1.1,0.6,0.6c-0.1-0.7-0.4-0.6-0.2-1.1
						c-0.1,0.5,0.4,0.8,0.6,1.2l-0.1,0.1c0.1,0.2,0.3,0.7,0.5,0.7c-0.1-0.1-0.2,0-0.2,0.2l0.3,0.1c0.4,0.8-0.3,0.3,0.1,1.1l-0.4-0.6
						c0.1,0.1,0,0.5,0.2,0.8c0.3,0.1,0.6,0.3,0.8,0.3c0.3,0.4-0.1,0.3,0.2,0.7l-0.5-0.5c-0.1-0.1-0.2,0.5,0.1,1.1
						c0.2,0.4,0.7,0.9,0.6,0.2c0.1,0.3,0.2,0.8-0.1,0.6c0.3,0.7,0.2-0.2,0.5,0.4c0,0.3,0.1,1.1,0.1,1.7l-0.6-0.5l0.2,0.4
						c-0.5-0.4-0.1,0.4-0.5,0.2c0.1,0.3,0.3,0.6,0.5,0.8c0.1-1,1,0.7,1.3,0.3c0.6,1.1-0.7,1.1,0.4,2c0-0.2,0.6,0.2,0.2-0.5
						c0.2,0.7,0.6,0.3,0.8,1.2c-0.4-0.5-0.2,0.8-0.8,0c0.2,0-0.1-0.5-0.2-0.7c0,0.4-0.4,0.1-0.1,0.8c0.2,0.4,0.5,1,0.6,0.8
						c0.2-0.1-0.3-0.7,0.1-0.5c0.4,0.8,0.1,1.1,0.7,1.3c-0.3-0.5-0.1-0.8,0.1-0.8l0.4,0.6l-0.2-0.1c0.3,1.1,0.4,0.2,0.8,1.2
						l-0.1,0.6c-0.4-0.1-0.5-1.5-0.8-1.1c0.2,0.7,0.6,0.8,0.7,1.4c-0.1-0.1-0.2-0.3-0.3-0.4c0.1,0.2-0.4,0.7,0.3,1.5
						c0.3,0.4,0.2,0.1,0.4,0c0.5,1,0.8,1.3,1.1,1.9c-0.4,0,0.5,1.2-0.2,0.6c0-0.4-0.6-1.9-1.1-2.1c-0.2,0.5-0.3-0.8-0.8-0.9
						c0.3,0.8,0,0.9-0.2,1.2c0.1,0.2,0.3,0.4,0.4,0.5c0.3,0,0.1-0.3,0.4-0.4c0.3,1,0.8,1.8,1.3,2.2c0,0.4-0.2,0.4-0.4,0
						c0.5,1.1,1,2.2,1.4,3.3c0.1-0.8,0.6,1.1,0.7,0.5c-0.2-0.6-0.1-1.2,0.2-1c0.1,0.4-0.2,0.1-0.2,0.2c0.4,0.4,0,0.8,0.5,1.1
						c-0.6-0.9-0.5,0-0.9,0c0.5,0.6-0.2,0.1,0.1,0.8c0.5,0.6,1,1.5,1.4,2.2c0.2,1.1,1.2,2.5,1.6,3.4c0.1,0.5-0.4,0.4-0.2,0.9
						c0.3,0.6,0.1-0.6,0.4,0.3h-0.1c0.2,0.2,0.6,1.7,1.2,1.7l-0.5-0.1c0.1,0.2,0.2,0.3,0.3,0.4c-0.1,0.1-0.1,0.3-0.3,0.1
						c0.1,0.6,0.6,1.1,1,1.6v-0.5c0.7,0.9,0.9,1.6,1.6,2.5l-0.2,0.1l0.5,0.5c-0.3,0-0.1,0.6,0.3,0.7c-0.5-0.3-0.9-0.7-1.4-1.1
						c-0.1-0.5,0.5,0.3,0.5-0.1c0-0.3-0.6-1.1-0.8-1.1c0.2,0.3,0.2,0.3,0.4,0.5c-0.2,0.3-0.5-0.2-0.8-0.4c0.1,0.2,0.2,0.5,0.3,0.4
						c-0.3-0.3-0.6-0.6-0.9-1.1c0.3,0.3,0-0.3,0.2-0.2c-0.3,0.1-0.6-0.4-1-1.2c0-0.7-0.9-1.2-1.3-2.1c0.4,0.2,0.8,0.5,1.2,1
						c-0.1-0.6-0.3-0.6-0.5-1.2c-0.3-0.2-0.7-0.2-1.1-0.8l0.2-0.1c-0.4-0.6-0.7-0.4-1-1.3c-0.6-1.4-1.2-2.8-1.7-3.9l0.2-0.1
						c-0.7-0.4-1-1.9-1.6-2.6c-0.4-1.4-1.5-2.9-1.4-3.7c-1.2-2.3-2.2-4.4-3.1-6.9l0.4,0.3c-0.4-0.4,0-0.4-0.2-0.8
						c0,0.6-0.5-0.5-0.8-0.7c-0.2-1.2-1-2.5-1.6-3.5l0.2-0.1c-0.7-0.9-0.9-2.2-1.3-3.4c0-0.2,0.1-0.5,0-0.8
						c-0.6-0.6-0.7-0.9-1.2-1.8c-0.3-0.7-0.6-1.9-0.8-2.7c-1.4-2.6-2.2-5.5-3.5-8.3l0.2-0.3c-1.5-2.6-2.2-6.2-3.3-8.5l0.5,0.1
						c-0.1-0.8-0.7-1.7-0.9-1.4c-0.1-0.8-0.8-1.8-0.7-2.4c0-0.2-0.1-0.4-0.2-0.7c-0.1-0.2-0.1-0.4-0.1-0.6c-0.1-0.3-0.1-0.5-0.2-0.8
						c0.2-1.6,0.1-2.2,0-3.7v0.4c0.1,0.2,0.3,0.2,0.3-0.2c-0.1-0.6,0.1-2.1-0.4-1.5c0.3-1.6-0.2-3.8,0.2-5.4
						c-0.1,0.1-0.2-0.3-0.2-0.4c0-1.4,0.3-2.9,0-4.1c0.1-0.2,0.2,0.4,0.2-0.2c-0.1-0.3-0.2,0-0.2-0.4c-0.2-2.3,0.3-4.7,0.2-6.8
						c-0.1-1.9-0.2-3.8-0.2-5.7c0-2.7,0-5.4,0-7.9l0.1,0.2c-0.2-1.3-0.1-2.5,0-3.5s0.1-1.9-0.2-3.6c0.1-0.2,0-1.8,0.2-0.8
						c-0.1-1.3-0.1-2.3,0-3.3s0.1-2-0.1-4.1c0,0.2,0,0.4,0.1,0.9c0.1-0.6,0.1-1.8,0.1-3.1c0.3,0.9,0.7,1.9,1.1,3.6
						c0,0-0.2-0.3-0.1,0.2c0.2,0.9,0.3,0.9,0.4,1s0.2,0.4,0.4,1.8c0.2,0.5,0-0.7-0.1-1c0.9,3,1.7,5.3,2.6,7.8c1,2.6,1.9,5.3,2.9,7.9
						c0,0.1,0.1,0.2,0.1,0.3c0,0.1,0,0.1,0,0.2s0,0.2,0,0.3c0,0.2,0,0.3,0,0.4c0,0.2-0.1,0.2-0.2,0.2c-0.1,0-0.2-0.1,0.3,0.8
						c0,0.2,0.2,0,0.1,0.1c0.4,0.7-0.1,1.2,0.3,1.7c0.2-0.3,0.3,0.3,0.4,0.2c0.3,1.5,0.1,1.8,0.7,2.8h-0.2c0.8,1.2,1.1,2.7,1.9,3.6
						c2.5,7.1,5,13.8,7.3,20.7c0.6,1.7,1.1,3.4,1.7,5l1.6,4.6l1.5,1.8c0.6,0.7,1.2,1.4,1.7,2.1c1.1,1.4,2.3,2.9,3.4,4.4
						c0.8,1.6,0.9,1.7,2.2,3.1c-0.1,0-0.2-0.1-0.2,0c0.3-0.1,0.9,1,1.2,1c1.6,2.2,3.3,4.1,5,6.3c-0.3-0.3-0.6-0.3-0.3,0.1l0.5,0.3
						v0.1c0.3,0.3,0.6,0.5,0.5,0.1c4.5,5.4,8.2,11.3,12.2,16.9c0.8,1.4,2.3,3.3,3.3,4.7c1.3,2.3,2.4,4.6,3.6,6.9
						c0.6,1.2,1.1,2.3,1.6,3.7c0.2,0.7,0.5,1.3,0.5,2.3c0,0.5-0.1,1.2-0.6,1.8c-0.6,0.7-1.4,0.8-1.9,0.8c0,0,0.1-0.1,0.2-0.2
						c0.2-0.1,0.4-0.2,0.8-0.5c0.2-0.1,0.3-0.4,0.5-0.6c0.1-0.3,0.2-0.5,0.2-0.8C82.7,556.8,82.6,556.3,82.4,555.8z"/>
					<path d="M52.5,557.1c0-0.3-0.3-0.8,0.2-0.5C52.6,556.7,52.6,557.1,52.5,557.1z"/>
					<path d="M46.2,542.1c-0.1,0,0-0.2,0-0.3c0.1,0.2,0.3,0.3,0.3,0.5C46.3,542.1,46.3,542.1,46.2,542.1z"/>
					<path d="M44.6,538.2c0.2,0,0.6,0.8,0.8,1.2L44.6,538.2z"/>
					<path d="M43.6,534.4c0-0.4,0.1-0.3,0.3,0.1C43.8,534.6,43.7,534.5,43.6,534.4z"/>
					<path d="M43.2,534.3c-0.1-0.3-0.1-0.5-0.1-0.7C43,533.7,43.5,534.3,43.2,534.3z"/>
					<path d="M40.4,526.4c-0.1-0.2-0.4-0.5-0.3-0.8C40.1,525.8,40.7,526.5,40.4,526.4z"/>
					<path d="M38.8,522.8c0-0.1,0-0.2-0.1-0.3c0-0.2,0.2-0.1,0.3,0.1L38.8,522.8z"/>
					<polygon points="28.1,458.7 28.2,459.2 28,458.6 					"/>
					<path d="M34.6,476.2c0.2,0.4,0,0.3,0,0.4C34.4,476.2,34.8,476.7,34.6,476.2z"/>
					<polygon points="40.6,491.9 40.6,491.8 40.8,491.8 					"/>
				</g>
			</g>
		</g>
	</g>
</g>
</svg>
