<?xml version="1.0" encoding="utf-8"?>
<!-- Generator: Adobe Illustrator 28.2.0, SVG Export Plug-In . SVG Version: 6.00 Build 0)  -->
<svg version="1.1" id="Layer_2_00000036225005092477921980000001898054934741926587_"
	 xmlns="http://www.w3.org/2000/svg" xmlns:xlink="http://www.w3.org/1999/xlink" x="0px" y="0px" viewBox="0 0 35 54"
	 style="enable-background:new 0 0 35 54;" xml:space="preserve">
<style type="text/css">
	.st0{fill:#231F20;}
	.st1{fill:#990000;}
</style>
<path class="st0" d="M15.9,16.7c0,0-0.1,0-0.1,0c-0.6-0.1-0.9-0.6-0.9-1.1l0.3-2.5c0.1-0.6,0.6-0.9,1.1-0.9c0.5,0.1,0.9,0.6,0.9,1.1
	l-0.3,2.5C16.8,16.4,16.3,16.7,15.9,16.7z"/>
<path class="st0" d="M19.4,15.5c-0.1,0-0.2,0-0.3,0c-0.5-0.1-0.8-0.7-0.7-1.2l0.4-1.5c0.1-0.5,0.7-0.8,1.2-0.7
	c0.5,0.1,0.8,0.7,0.7,1.2l-0.4,1.5C20.3,15.2,19.9,15.5,19.4,15.5z"/>
<path class="st0" d="M15,20c-0.4,0-0.8-0.2-0.9-0.6c-0.2-0.5,0.1-1.1,0.6-1.3l4.8-1.9c0.5-0.2,1.1,0,1.3,0.6c0.2,0.5,0,1.1-0.6,1.3
	l-4.8,1.9C15.3,20,15.2,20,15,20z"/>
<path class="st1" d="M34.9,19.5c-0.3-0.6-1-0.9-1.7-0.6l-8.5,3.8l0.6,2.1c-2.9,0.9-6.3,1.8-8.1,2c-0.4-1.8-0.8-3.4-1.1-4.4
	c0.7,0,1.3-0.1,1.7-0.1c4.2-0.4,7.6-4.6,7.6-7.9c0-1.2-0.5-2.2-1.1-3l7.5-0.6c0.7-0.1,1.2-0.6,1.1-1.3c0-0.7-0.6-1.2-1.3-1.2L24.4,9
	c1-1.2,2.2-2.8,2.6-4.2c0.3-1.2,0-2-0.3-2.5c-0.8-1.2-2.3-1.4-2.9-1.5C23.5,0.7,23.3,0.7,12,2l-0.2,0c-1.4,0.3-6,1.7-6.5,4.3
	C5.2,7.2,5.4,7.9,5.9,8.5c0.8,0.8,2,1,2.9,1l0.3,1.1c-0.1,0.2-0.2,0.5-0.2,0.8c0,0.4,0.3,0.8,0.6,1l0.1,0.4l0.6-0.1
	c-0.7,1.5-1.4,3.6-1,5.6c0.5,2.6,2.4,3.6,4.3,4c0,0,0,0,0,0.1c0.3,0.9,0.7,2.5,1.1,4.2c-1.7-0.4-4.2-1.2-6.4-2l1.2-2.4l-7.6-3.3
	c-0.6-0.3-1.4,0-1.6,0.6c-0.3,0.6,0,1.4,0.6,1.6L6,23.4l-0.2,0.4c-0.1,0-0.2-0.1-0.3-0.1c-0.7-0.2-1.4,0.1-1.6,0.8
	c-0.2,0.6,0.1,1.3,0.7,1.6l-1.1,2.1c-0.3,0.6-0.1,1.4,0.6,1.7c0.2,0.1,0.4,0.1,0.6,0.1c0.5,0,0.9-0.2,1.1-0.7l1.2-2.4
	c2.4,0.8,5.9,1.9,8.1,2.4c0.4,2.5,0.6,5.1,0.1,6.6c-1.4,4-7.1,15.9-7.2,16c-0.3,0.6,0,1.4,0.6,1.7c0.2,0.1,0.4,0.1,0.5,0.1
	c0.5,0,0.9-0.3,1.1-0.7c0.2-0.4,4.1-8.4,6.2-13.5c0.9,1,2.1,2.7,2.8,4.1c1.1,2.5,3.3,9.2,3.3,9.3c0.2,0.5,0.7,0.9,1.2,0.9
	c0.1,0,0.3,0,0.4-0.1c0.7-0.2,1-0.9,0.8-1.6c-0.1-0.3-2.3-6.9-3.4-9.5c-1-2.4-3.3-4.9-4-5.7c0,0,0-0.1,0-0.2
	c0.6-1.9,0.5-4.6,0.1-7.3c2.2-0.3,5.9-1.3,8.3-2.1l0.8,2.8c0.2,0.5,0.7,0.9,1.2,0.9c0.1,0,0.2,0,0.4,0c0.7-0.2,1-0.9,0.9-1.5
	l-0.8-2.8c0.6-0.2,1-0.9,0.8-1.6c-0.2-0.6-0.9-1-1.5-0.8l0,0l6.5-2.9C34.9,20.9,35.2,20.1,34.9,19.5z M9.6,6.9C9,7,8.1,6.9,7.8,6.8
	c0.2-0.6,2.4-1.8,4.6-2.3c3.9-0.4,10.1-1.2,11-1.2c0,0,0,0,0,0c0.9,0.1,1.1,0.3,1.1,0.4c0,0.1,0,0.2,0,0.4c-0.3,1.2-1.9,3.2-3,4.3
	l-10,1.5l-0.7-3.1L9.6,6.9z M11.2,17.8c-0.4-2,0.7-4.2,1.4-5.4l9.1-0.7c0.9,0.7,1.8,1.7,1.8,2.8c0,2.1-2.5,5.6-5.7,5.9
	C13.5,20.7,11.6,20,11.2,17.8z"/>
</svg>
