<?xml version="1.0" encoding="utf-8"?>
<!-- Generator: Adobe Illustrator 28.2.0, SVG Export Plug-In . SVG Version: 6.00 Build 0)  -->
<svg version="1.1" id="Layer_2" xmlns="http://www.w3.org/2000/svg" xmlns:xlink="http://www.w3.org/1999/xlink" x="0px" y="0px"
	 viewBox="0 0 35 54" style="enable-background:new 0 0 35 54;" xml:space="preserve">
<style type="text/css">
	.st0{fill:#231F20;}
</style>
<path class="st0" d="M15.85,16.74c-0.04,0-0.09,0-0.13-0.01c-0.55-0.07-0.93-0.58-0.86-1.12l0.33-2.52
	c0.07-0.55,0.58-0.93,1.12-0.86c0.55,0.07,0.93,0.58,0.86,1.12l-0.33,2.52C16.77,16.38,16.34,16.74,15.85,16.74z"/>
<path class="st0" d="M19.43,15.48c-0.09,0-0.18-0.01-0.28-0.04c-0.53-0.15-0.84-0.71-0.69-1.24l0.43-1.51
	c0.15-0.53,0.7-0.84,1.24-0.69c0.53,0.15,0.84,0.71,0.69,1.24l-0.43,1.51C20.27,15.2,19.87,15.48,19.43,15.48z"/>
<path class="st0" d="M15.04,19.98c-0.4,0-0.77-0.24-0.93-0.63c-0.2-0.51,0.05-1.09,0.56-1.3l4.83-1.92c0.51-0.21,1.09,0.05,1.3,0.56
	c0.2,0.51-0.05,1.09-0.56,1.3l-4.83,1.92C15.29,19.96,15.16,19.98,15.04,19.98z"/>
<path class="st0" d="M34.87,19.52c-0.28-0.63-1.02-0.91-1.65-0.63l-8.48,3.78l0.61,2.14c-2.89,0.86-6.33,1.79-8.06,2.02
	c-0.38-1.83-0.81-3.44-1.09-4.41c0.66-0.01,1.26-0.06,1.73-0.1c4.18-0.35,7.56-4.58,7.57-7.86c0-1.16-0.49-2.16-1.14-2.96l7.53-0.56
	c0.69-0.05,1.21-0.65,1.15-1.34C33,8.92,32.44,8.39,31.72,8.45l-7.35,0.54c1-1.15,2.22-2.77,2.59-4.25
	c0.29-1.16-0.03-1.97-0.34-2.45c-0.8-1.2-2.34-1.42-2.85-1.48c-0.29-0.07-0.48-0.12-11.77,1.21l-0.16,0.03
	c-1.4,0.35-6.02,1.7-6.5,4.33c-0.15,0.81,0.06,1.56,0.58,2.1c0.75,0.79,1.97,0.98,2.91,0.99l0.26,1.15
	c-0.15,0.22-0.24,0.49-0.22,0.77c0.03,0.42,0.28,0.76,0.62,0.97l0.08,0.35l0.64-0.1c-0.72,1.52-1.37,3.58-0.97,5.57
	c0.53,2.6,2.38,3.65,4.32,4.04c0.01,0.02,0,0.05,0.01,0.07c0.29,0.94,0.71,2.49,1.1,4.23c-1.74-0.44-4.22-1.22-6.44-1.96l1.21-2.42
	l-7.58-3.31c-0.63-0.28-1.37,0.01-1.65,0.65c-0.28,0.63,0.01,1.37,0.65,1.65l5.17,2.26l-0.18,0.37c-0.09-0.03-0.2-0.07-0.29-0.1
	c-0.65-0.23-1.37,0.11-1.59,0.76C3.72,25.06,4.06,25.77,4.71,26l-1.07,2.14c-0.31,0.62-0.06,1.37,0.56,1.68
	c0.18,0.09,0.37,0.13,0.56,0.13c0.46,0,0.9-0.25,1.12-0.69l1.22-2.44c2.38,0.8,5.94,1.94,8.09,2.38c0.42,2.55,0.61,5.09,0.1,6.57
	C13.9,39.8,8.16,51.67,8.1,51.79c-0.3,0.62-0.04,1.37,0.58,1.67c0.18,0.08,0.36,0.12,0.54,0.12c0.46,0,0.91-0.26,1.13-0.71
	c0.2-0.41,4.07-8.42,6.22-13.54c0.89,1.04,2.15,2.65,2.77,4.08c1.08,2.52,3.28,9.24,3.3,9.3c0.17,0.53,0.66,0.86,1.19,0.86
	c0.13,0,0.26-0.02,0.39-0.06c0.66-0.21,1.01-0.92,0.8-1.58c-0.09-0.28-2.26-6.89-3.38-9.51c-1.01-2.37-3.3-4.91-4.04-5.7
	c0.02-0.05,0.04-0.1,0.05-0.15c0.64-1.86,0.49-4.63,0.09-7.3c2.24-0.32,5.85-1.33,8.31-2.07l0.79,2.75c0.16,0.55,0.66,0.91,1.2,0.91
	c0.11,0,0.23-0.02,0.35-0.05c0.66-0.19,1.05-0.88,0.86-1.55l-0.8-2.8c0.65-0.22,1-0.91,0.79-1.56c-0.2-0.63-0.85-0.97-1.48-0.82
	l-0.01-0.02l6.5-2.9C34.87,20.89,35.15,20.15,34.87,19.52z M9.65,6.93C8.96,7.02,8.11,6.95,7.8,6.8c0.16-0.62,2.38-1.75,4.56-2.31
	c3.87-0.45,10.08-1.16,11-1.22c0.02,0,0.03,0.01,0.05,0.01c0.85,0.12,1.07,0.33,1.13,0.41c0.05,0.07,0.05,0.24-0.01,0.44
	c-0.31,1.25-1.91,3.16-3.02,4.26L11.48,9.9l-0.71-3.11L9.65,6.93z M11.19,17.79c-0.4-1.97,0.68-4.2,1.4-5.41l9.13-0.68
	c0.86,0.67,1.78,1.66,1.78,2.76c-0.01,2.12-2.47,5.6-5.74,5.87C13.48,20.69,11.64,19.97,11.19,17.79z"/>
</svg>
