<?xml version="1.0" encoding="utf-8"?>
<!-- Generator: Adobe Illustrator 28.2.0, SVG Export Plug-In . SVG Version: 6.00 Build 0)  -->
<svg version="1.1" id="Layer_2" xmlns="http://www.w3.org/2000/svg" xmlns:xlink="http://www.w3.org/1999/xlink" x="0px" y="0px"
	 viewBox="0 0 60 40" style="enable-background:new 0 0 60 40;" xml:space="preserve">
<style type="text/css">
	.st0{fill:none;stroke:#000000;stroke-width:2;stroke-linecap:round;stroke-miterlimit:10;}
</style>
<polygon points="7.15,20.83 8.21,26.48 13.62,25.42 13.62,19.66 "/>
<polygon points="19.03,18.95 19.03,19.66 19.03,24.71 23.74,24.71 23.74,19.66 "/>
<polygon points="28.33,19.66 28.33,24.71 33.98,24.71 33.98,18.24 "/>
<polygon points="39.69,18.24 39.24,24.01 45.39,23.07 45.39,18.24 "/>
<polygon points="48.92,19.66 48.92,24.01 53.86,24.01 53.86,18.24 "/>
<g>
	<path d="M32.83,32.48c-0.03-0.17-0.04-0.63-0.04-1.24c0.05-0.15,0.07-0.3,0.01-0.46c0-0.01-0.01-0.02-0.02-0.03
		c0-1.2,0.03-2.74,0.05-3.84c0.01-0.41-0.32-0.76-0.73-0.77c-0.42,0.02-0.76,0.32-0.77,0.73c-0.01,0.49-0.05,2.16-0.05,3.6
		l-3.61,1.16c-0.22-1.44-0.48-2.59-0.5-2.68c-0.09-0.4-0.49-0.66-0.9-0.56c-0.4,0.09-0.66,0.5-0.56,0.9
		c0.01,0.04,1.02,4.48,0.69,6.66c-0.06,0.41,0.22,0.79,0.63,0.85c0.04,0.01,0.08,0.01,0.11,0.01c0.36,0,0.69-0.27,0.74-0.64
		c0.13-0.85,0.09-1.94-0.02-3.03l3.44-1.1c0.01,0.29,0.02,0.53,0.04,0.66c0.12,0.8,0.59,2.54,0.61,2.61
		c0.09,0.33,0.39,0.56,0.72,0.56c0.06,0,0.13-0.01,0.19-0.03c0.4-0.11,0.64-0.52,0.53-0.92C33.4,34.92,32.94,33.2,32.83,32.48z"/>
	<path d="M40.88,34.49c2.24-1.37,1.86-4.26,1.31-5.67c-0.11-0.26-1.17-2.54-2.97-3.04c-0.8-0.22-1.63-0.05-2.39,0.5
		c-2.8,2-2.44,5.46-2.43,5.61l0.03,0.13c0.03,0.09,0.7,2.25,2.55,3.01c0.42,0.17,0.86,0.26,1.32,0.26c0.39,0,0.79-0.06,1.2-0.19
		l0.86,1.76c0.13,0.27,0.4,0.42,0.67,0.42c0.11,0,0.22-0.02,0.33-0.08c0.37-0.18,0.52-0.63,0.34-1L40.88,34.49z M37.56,33.65
		c-1.05-0.42-1.56-1.7-1.67-2c-0.03-0.44-0.08-2.79,1.81-4.15c0.52-0.37,0.89-0.33,1.12-0.27c0.95,0.26,1.77,1.68,1.99,2.17
		c0.04,0.11,0.98,2.62-0.6,3.74L39,30.68c-0.18-0.37-0.63-0.53-1-0.34c-0.37,0.18-0.52,0.63-0.34,1l1.17,2.38
		C38.36,33.81,37.94,33.8,37.56,33.65z"/>
</g>
<path d="M60.06,5L47.88,6.15l-0.59,6.35c-2.41,0.2-4.97,0.36-5.84,0.34c-0.33-0.81-0.8-3.26-1.07-5.31L40.26,6.6L25.6,7.42
	l0.08,1.02c0.19,2.33,0.01,4.84-0.37,5.36c-0.68,0.21-2.91,0.38-5.2,0.49l1.03-12.76c0.04-0.55-0.37-1.03-0.92-1.08
	c-0.56-0.05-1.03,0.37-1.08,0.92L18.1,14.38c-0.16,0.01-0.31,0.01-0.46,0.02l-1.07-6.17L0.86,9.55V20.7
	c-0.14,0.57-0.66,2.81-0.47,4.81l1.38,14.03l0.86,0.05c0.9,0.05,22.09,1.17,26.55-0.03c2.35-0.64,7.82-0.02,12.22,0.48
	c2.73,0.31,5.02,0.57,6.57,0.57c0.5,0,0.92-0.03,1.26-0.09l9.76-1.8v-0.83c0-0.5-0.01-12.29-0.98-15.79
	c-0.72-2.61,1.04-12.26,1.78-15.76L60.06,5z M56.07,22.63c0.76,2.74,0.88,11.66,0.9,14.43l-8.12,1.5c-1.07,0.2-4.2-0.16-7.23-0.5
	c-3.22-0.36-6.74-0.76-9.52-0.76c-1.36,0-2.55,0.1-3.44,0.34c-3.29,0.89-18.46,0.35-25.06,0.01L2.38,25.32
	c-0.19-1.89,0.43-4.2,0.44-4.23l0.04-9.71l12.05-1.01l1.05,6.06l0.86-0.02c1.29-0.03,7.77-0.21,9.27-0.77
	c1.56-0.58,1.79-3.58,1.65-6.35l10.78-0.6c0.81,5.63,1.61,5.87,2.1,6.02c0.79,0.24,4.61-0.04,7.68-0.31l0.83-0.07l0.59-6.36
	l7.83-0.74C56.86,10.76,55.25,19.64,56.07,22.63z"/>
<path class="st0" d="M64.68-9.99"/>
<polygon points="21.7,1.45 21.39,6.76 34.58,2.88 "/>
</svg>
