<?xml version="1.0" encoding="utf-8"?>
<!-- Generator: Adobe Illustrator 28.2.0, SVG Export Plug-In . SVG Version: 6.00 Build 0)  -->
<svg version="1.1" id="Layer_2_00000122702263856836340430000001629932949152163477_"
	 xmlns="http://www.w3.org/2000/svg" xmlns:xlink="http://www.w3.org/1999/xlink" x="0px" y="0px" viewBox="0 0 60 40"
	 style="enable-background:new 0 0 60 40;" xml:space="preserve">
<style type="text/css">
	.st0{fill:#990000;}
	.st1{fill:none;stroke:#000000;stroke-width:2;stroke-linecap:round;stroke-miterlimit:10;}
</style>
<polygon class="st0" points="7.2,20.8 8.2,26.5 13.6,25.4 13.6,19.7 "/>
<polygon class="st0" points="19,19 19,19.7 19,24.7 23.7,24.7 23.7,19.7 "/>
<polygon class="st0" points="28.3,19.7 28.3,24.7 34,24.7 34,18.2 "/>
<polygon class="st0" points="39.7,18.2 39.2,24 45.4,23.1 45.4,18.2 "/>
<polygon class="st0" points="48.9,19.7 48.9,24 53.9,24 53.9,18.2 "/>
<g>
	<path class="st0" d="M32.8,32.5c0-0.2,0-0.6,0-1.2c0-0.1,0.1-0.3,0-0.5c0,0,0,0,0,0c0-1.2,0-2.7,0-3.8c0-0.4-0.3-0.8-0.7-0.8
		c-0.4,0-0.8,0.3-0.8,0.7c0,0.5,0,2.2,0,3.6l-3.6,1.2c-0.2-1.4-0.5-2.6-0.5-2.7c-0.1-0.4-0.5-0.7-0.9-0.6c-0.4,0.1-0.7,0.5-0.6,0.9
		c0,0,1,4.5,0.7,6.7c-0.1,0.4,0.2,0.8,0.6,0.8c0,0,0.1,0,0.1,0c0.4,0,0.7-0.3,0.7-0.6c0.1-0.8,0.1-1.9,0-3l3.4-1.1
		c0,0.3,0,0.5,0,0.7c0.1,0.8,0.6,2.5,0.6,2.6c0.1,0.3,0.4,0.6,0.7,0.6c0.1,0,0.1,0,0.2,0c0.4-0.1,0.6-0.5,0.5-0.9
		C33.4,34.9,32.9,33.2,32.8,32.5z"/>
	<path class="st0" d="M40.9,34.5c2.2-1.4,1.9-4.3,1.3-5.7c-0.1-0.3-1.2-2.5-3-3c-0.8-0.2-1.6,0-2.4,0.5c-2.8,2-2.4,5.5-2.4,5.6
		l0,0.1c0,0.1,0.7,2.2,2.5,3c0.4,0.2,0.9,0.3,1.3,0.3c0.4,0,0.8-0.1,1.2-0.2l0.9,1.8c0.1,0.3,0.4,0.4,0.7,0.4c0.1,0,0.2,0,0.3-0.1
		c0.4-0.2,0.5-0.6,0.3-1L40.9,34.5z M37.6,33.7c-1-0.4-1.6-1.7-1.7-2c0-0.4-0.1-2.8,1.8-4.1c0.5-0.4,0.9-0.3,1.1-0.3
		c1,0.3,1.8,1.7,2,2.2c0,0.1,1,2.6-0.6,3.7L39,30.7c-0.2-0.4-0.6-0.5-1-0.3c-0.4,0.2-0.5,0.6-0.3,1l1.2,2.4
		C38.4,33.8,37.9,33.8,37.6,33.7z"/>
</g>
<path class="st0" d="M60.1,5L47.9,6.2l-0.6,6.3c-2.4,0.2-5,0.4-5.8,0.3c-0.3-0.8-0.8-3.3-1.1-5.3l-0.1-0.9L25.6,7.4l0.1,1
	c0.2,2.3,0,4.8-0.4,5.4c-0.7,0.2-2.9,0.4-5.2,0.5l1-12.8c0-0.6-0.4-1-0.9-1.1c-0.6-0.1-1,0.4-1.1,0.9l-1,13c-0.2,0-0.3,0-0.5,0
	l-1.1-6.2L0.9,9.6v11.2c-0.1,0.6-0.7,2.8-0.5,4.8l1.4,14l0.9,0c0.9,0,22.1,1.2,26.5,0c2.4-0.6,7.8,0,12.2,0.5c2.7,0.3,5,0.6,6.6,0.6
	c0.5,0,0.9,0,1.3-0.1l9.8-1.8v-0.8c0-0.5,0-12.3-1-15.8c-0.7-2.6,1-12.3,1.8-15.8L60.1,5z M56.1,22.6c0.8,2.7,0.9,11.7,0.9,14.4
	l-8.1,1.5c-1.1,0.2-4.2-0.2-7.2-0.5c-3.2-0.4-6.7-0.8-9.5-0.8c-1.4,0-2.5,0.1-3.4,0.3c-3.3,0.9-18.5,0.3-25.1,0L2.4,25.3
	c-0.2-1.9,0.4-4.2,0.4-4.2l0-9.7l12-1l1.1,6.1l0.9,0c1.3,0,7.8-0.2,9.3-0.8c1.6-0.6,1.8-3.6,1.6-6.4l10.8-0.6c0.8,5.6,1.6,5.9,2.1,6
	c0.8,0.2,4.6,0,7.7-0.3l0.8-0.1L49.7,8l7.8-0.7C56.9,10.8,55.2,19.6,56.1,22.6z"/>
<path class="st1" d="M64.7-10"/>
<polygon class="st0" points="21.7,1.5 21.4,6.8 34.6,2.9 "/>
</svg>
