<?xml version="1.0" encoding="utf-8"?>
<!-- Generator: Adobe Illustrator 28.2.0, SVG Export Plug-In . SVG Version: 6.00 Build 0)  -->
<svg version="1.1" id="Layer_1" xmlns="http://www.w3.org/2000/svg" xmlns:xlink="http://www.w3.org/1999/xlink" x="0px" y="0px"
	 viewBox="0 0 60 54" style="enable-background:new 0 0 60 54;" xml:space="preserve">
<style type="text/css">
	.st0{fill:#990000;}
</style>
<rect x="23.7" y="40.1" class="st0" width="4" height="1.1"/>
<path class="st0" d="M27.1,42.5v-0.6h-4v0.6l-4.8,0l-0.3,8.5h10.2l0.2-8.4L27.1,42.5z M27.3,49.8h-8.2l0.2-6.3l8.1,0L27.3,49.8z"/>
<rect x="24.5" y="38.2" class="st0" width="4" height="1.1"/>
<rect x="25.7" y="36.3" class="st0" width="4" height="1.1"/>
<rect x="26.5" y="34.7" class="st0" width="4" height="1.1"/>
<rect x="27.1" y="32.6" class="st0" width="4" height="1.1"/>
<rect x="27.7" y="30.6" class="st0" width="4" height="1.1"/>
<path class="st0" d="M43.1,38.5l-6.3-2c-0.1,0-0.1,0-0.2,0l-1-7.8l11.8-1l0.4-4.4l12.1-0.8l-0.2-3.2L48.1,20l0.2-2l-23.5,1.8
	l-0.4,3.1l-2.6,0.3l-4-7.8c3.6-1.5,4.1-3.7,4.1-6V9.2c0-1.2-1.2-3.4-2.9-5.2L22,2c0.5-0.3,0.6-1,0.3-1.5c-0.3-0.5-1-0.6-1.4-0.3
	l-3.6,2.5C15.2,1.3,13,1.1,11,2.1C5.7,4.6,6.4,8.6,6.7,9.5c0,0.1,0,0.2,0,0.4L3,12.5c-0.5,0.3-0.6,1-0.3,1.5
	c0.2,0.3,0.5,0.5,0.9,0.5c0.2,0,0.4-0.1,0.6-0.2l3.1-2.1c0.3,1.1,0.9,2.2,1.9,3.1L2.7,32.9c-0.2,0.2-0.3,0.5-0.3,0.8L2.3,34l0.2,0.1
	C2.6,35.1,3,37.5,4.2,41c1.1,3.1-2.5,8.8-3.9,10.8c-0.3,0.5-0.3,1.1,0.2,1.5c0.2,0.2,0.4,0.2,0.6,0.2c0.3,0,0.6-0.1,0.8-0.4
	c0.6-0.8,5.9-8,4.3-12.8c-0.6-1.7-1-3.2-1.2-4.3c3.7,2.8,7.1,6.1,7.3,7.2l1.6,9.4c0,0,1.6,1.4,2-0.4c-0.3-1.5-1.6-9.4-1.6-9.4
	c-0.4-2.6-6.7-7.5-9.4-9.6l5.8-16c-0.2,2.7-0.5,8,0.2,9.7c0.7,1.7,2.7,2.3,4.2,2.5l-0.3,1.4l3,0.6l0.9-4.6l5.3-0.8l-0.5,3.5l4.8-0.4
	V30h4V29h-0.8l2.2-0.2l1.1,8.8l-4.9,13.6c-0.2,0.6,0.1,1.2,0.6,1.4c0.1,0,0.2,0.1,0.4,0.1c0.4,0,0.8-0.3,1-0.7L36,40l2,5.6l0.8,7.4
	c0.1,0.5,0.5,0.9,1,0.9c0,0,0.1,0,0.1,0c0.6-0.1,1-0.6,0.9-1.2L40,45.3L37.8,39l3.9,1.3l5.8,11c0.2,0.4,0.5,0.6,0.9,0.6
	c0.2,0,0.3,0,0.5-0.1c0.5-0.3,0.7-0.9,0.4-1.5L43.1,38.5z M11.8,4.1c0.6-0.3,1.2-0.4,1.8-0.4c0.6,0,1.1,0.1,1.7,0.4L8.6,8.6
	C8.4,7.8,8.4,5.7,11.8,4.1z M10.4,13.6C9.6,12.9,9.2,11.9,9,11l8.3-5.7c1.6,1.5,2.6,3.4,2.6,3.9v0.3c0,1.5,0,3.6-5.6,4.8
	C12.6,14.6,11.3,14.4,10.4,13.6z M16,24l-0.6,3.4c-1.2-0.2-2.4-0.6-2.7-1.2c-0.5-1.1-0.3-6.1,0-9.6c0.1,0,0.1,0,0.1,0
	c0.6,0,1.2-0.1,1.9-0.2c0.4-0.1,0.8-0.2,1.1-0.3l3.8,7.4L16,24z M34.4,27.5c-0.2,0-0.3,0.1-0.4,0.2l-1.2,0.1v-0.8h-4V28h1l-5.2,0.4
	l1.1-7.7l21.4-1.6l-0.6,7.4l-11.5,1C34.8,27.5,34.6,27.5,34.4,27.5z"/>
<rect x="29.4" y="24.9" class="st0" width="4" height="1.1"/>
<path class="st0" d="M36.7,24.3c-0.3,0-0.5-0.2-0.5-0.5v-1.1l-8.5,0.6c-0.3,0-0.5-0.2-0.5-0.5c0-0.3,0.2-0.5,0.5-0.6l9.6-0.7v2.3
	C37.2,24.1,37,24.3,36.7,24.3z"/>
</svg>
