<?xml version="1.0" encoding="utf-8"?>
<!-- Generator: Adobe Illustrator 28.2.0, SVG Export Plug-In . SVG Version: 6.00 Build 0)  -->
<svg version="1.1" id="Layer_1" xmlns="http://www.w3.org/2000/svg" xmlns:xlink="http://www.w3.org/1999/xlink" x="0px" y="0px"
	 viewBox="0 0 60 54" style="enable-background:new 0 0 60 54;" xml:space="preserve">
<style type="text/css">
	.st0{fill:#231F20;}
</style>
<rect x="23.72" y="40.08" class="st0" width="3.98" height="1.07"/>
<path class="st0" d="M27.08,42.45v-0.63H23.1v0.61l-4.77-0.03l-0.27,8.48H28.3l0.16-8.42L27.08,42.45z M27.29,49.81h-8.17l0.2-6.33
	l8.09,0.05L27.29,49.81z"/>
<rect x="24.48" y="38.22" class="st0" width="3.98" height="1.07"/>
<rect x="25.71" y="36.34" class="st0" width="3.98" height="1.07"/>
<rect x="26.46" y="34.66" class="st0" width="3.98" height="1.07"/>
<rect x="27.11" y="32.64" class="st0" width="3.98" height="1.07"/>
<rect x="27.7" y="30.62" class="st0" width="3.98" height="1.07"/>
<path class="st0" d="M43.12,38.45l-6.31-2.04c-0.06-0.02-0.12-0.01-0.18-0.02l-1.01-7.8l11.82-1l0.38-4.4l12.06-0.78l-0.19-3.21
	L48.1,19.96L48.27,18L24.8,19.76l-0.44,3.14l-2.57,0.33l-3.97-7.8c3.56-1.5,4.12-3.73,4.09-5.98l0-0.24c0-1.22-1.21-3.44-2.91-5.15
	l3.04-2.09c0.47-0.33,0.6-0.99,0.29-1.49c-0.31-0.49-0.95-0.63-1.42-0.31l-3.61,2.49c-2.09-1.34-4.28-1.54-6.35-0.55
	c-5.23,2.5-4.52,6.45-4.25,7.44c0,0.09,0.01,0.23,0.02,0.38l-3.76,2.59c-0.47,0.33-0.6,0.99-0.29,1.49c0.2,0.31,0.52,0.48,0.86,0.48
	c0.19,0,0.39-0.06,0.56-0.18l3.08-2.12c0.34,1.05,0.91,2.2,1.9,3.06L2.7,32.87c-0.2,0.21-0.32,0.51-0.3,0.83l-0.12,0.32l0.17,0.12
	c0.12,0.92,0.51,3.31,1.71,6.82c1.07,3.12-2.48,8.83-3.94,10.77c-0.35,0.47-0.27,1.14,0.17,1.51c0.19,0.15,0.41,0.23,0.63,0.23
	c0.3,0,0.61-0.14,0.81-0.41c0.61-0.81,5.9-8.03,4.26-12.82c-0.59-1.73-0.97-3.16-1.22-4.26c3.65,2.85,7.11,6.06,7.31,7.21l1.61,9.37
	c0,0,1.57,1.44,2.02-0.38c-0.26-1.49-1.61-9.37-1.61-9.37c-0.45-2.62-6.68-7.52-9.44-9.58l5.78-15.97
	c-0.21,2.71-0.51,7.98,0.19,9.72c0.67,1.66,2.67,2.28,4.2,2.51l-0.26,1.37l3.03,0.62l0.86-4.58l5.34-0.81l-0.5,3.55l4.76-0.4v0.81
	h3.98v-1.07h-0.8l2.22-0.19l1.14,8.77L29.82,51.2c-0.2,0.56,0.07,1.17,0.6,1.38c0.12,0.05,0.24,0.07,0.36,0.07
	c0.42,0,0.81-0.27,0.96-0.7l4.27-11.92l1.97,5.63l0.85,7.4C38.88,53.6,39.33,54,39.84,54c0.04,0,0.08,0,0.12-0.01
	c0.56-0.07,0.97-0.6,0.9-1.19L40,45.28l-2.17-6.29l3.89,1.26l5.75,10.95c0.19,0.36,0.54,0.56,0.9,0.56c0.17,0,0.34-0.04,0.49-0.13
	c0.5-0.29,0.68-0.94,0.41-1.46L43.12,38.45z M11.8,4.07c0.6-0.29,1.2-0.43,1.81-0.43c0.57,0,1.14,0.13,1.71,0.38L8.58,8.65
	C8.42,7.83,8.39,5.7,11.8,4.07z M10.43,13.65c-0.84-0.71-1.26-1.79-1.47-2.69l8.27-5.69c1.63,1.48,2.6,3.44,2.62,3.93l0,0.27
	c0.02,1.52,0.04,3.59-5.58,4.8C12.63,14.63,11.34,14.42,10.43,13.65z M15.98,23.97l-0.64,3.38c-1.22-0.18-2.45-0.6-2.71-1.22
	c-0.46-1.14-0.27-6.1,0.03-9.55c0.05,0,0.09,0.01,0.15,0.01c0.59,0,1.22-0.07,1.88-0.21c0.4-0.09,0.78-0.18,1.14-0.27l3.77,7.41
	L15.98,23.97z M34.44,27.48c-0.16,0.02-0.3,0.09-0.42,0.18l-1.22,0.1v-0.82h-3.98v1.07h1.01l-5.21,0.44l1.09-7.68l21.43-1.61
	l-0.64,7.44l-11.51,0.97C34.81,27.5,34.63,27.45,34.44,27.48z"/>
<rect x="29.41" y="24.92" class="st0" width="3.98" height="1.07"/>
<path d="M36.71,24.33c-0.28,0-0.51-0.24-0.51-0.54v-1.11l-8.53,0.63c-0.3,0.02-0.53-0.2-0.55-0.5c-0.02-0.3,0.19-0.55,0.48-0.57
	l9.63-0.71v2.26C37.23,24.09,37,24.33,36.71,24.33z"/>
</svg>
