<?xml version="1.0" encoding="utf-8"?>
<!-- Generator: Adobe Illustrator 28.2.0, SVG Export Plug-In . SVG Version: 6.00 Build 0)  -->
<svg version="1.1" id="Layer_2_00000042719462453711561580000000359634659165824158_"
	 xmlns="http://www.w3.org/2000/svg" xmlns:xlink="http://www.w3.org/1999/xlink" x="0px" y="0px" viewBox="0 0 60 54"
	 style="enable-background:new 0 0 60 54;" xml:space="preserve">
<style type="text/css">
	.st0{fill:#990000;}
</style>
<path class="st0" d="M59.9,44.6c-0.1-0.2-2.3-5.6-5.2-8.9c-2.2-2.4-5.8-4.5-7.6-5.4l9.4-9.1l-8.3-7.4L31.9,33.8l-0.1,0.1
	c-0.6,0.9-0.9,2.5,0.1,4l-4.1,4.9c0,0,0,0.1-0.1,0.1h-3.7c-0.8-2.6-1.7-4.9-2.5-5.5c-1.5-1.2-9.9-4.9-11.6-5.7c-0.1,0-0.1,0-0.1,0
	l2.9-5.6c2.7,1.9,15.6,2.1,19.9,2.1c0.1,0,0.2,0,0.2,0c0.7,0,1.2-0.6,1.2-1.2s-0.6-1.2-1.2-1.2c0,0-0.1,0-0.2,0
	c-8,0-17.2-0.6-18.4-1.6c-0.1-0.1-0.2-0.1-0.3-0.2l2.2-4.1c0.9,0,1.9-0.3,2.8-0.8c5.2-2.8,4.1-9,2.8-12L26,4.7
	c0.6-0.3,0.8-1.1,0.5-1.7s-1.1-0.8-1.7-0.5L20.2,5c-2-2.2-5.2-4.3-9-2.5c-4.2,2-4.4,6.4-3.8,9.3L3,14.2c-0.6,0.3-0.8,1.1-0.5,1.7
	c0.2,0.4,0.7,0.7,1.1,0.7c0.2,0,0.4,0,0.6-0.1l4.1-2.2c0.8,1.5,2.6,4.1,5.2,5.2l-1.9,3.5c-3.5-1.2-8.7-1.9-10-2.1
	c-0.7-0.1-1.3,0.4-1.4,1.1s0.4,1.3,1.1,1.4c2.6,0.3,6.6,1,9.1,1.8l-4.2,8l1,0.6c2.6,1.7,5.1,3.6,5.9,4.6c-3.5,3.3-6.9,12.1-7.3,13.1
	C5.6,52,6,52.8,6.6,53c0.2,0.1,0.3,0.1,0.4,0.1c0.5,0,1-0.3,1.2-0.8c1.1-2.8,4.4-10.5,7-12.5l0.2-0.2c0.3-0.4,0.4-0.9,0.3-1.4
	c-0.1-0.4-0.3-0.8-0.6-1.3c2.3,1.1,4.4,2.1,4.8,2.5c0.3,0.4,0.9,1.7,1.4,3.6h-1.4c-0.7,0-1.2,0.6-1.2,1.2s0.6,1.2,1.2,1.2h2.1
	c0.5,1.8,1,3.9,1.5,5.8c0.1,0.6,0.6,1,1.2,1c0.1,0,0.2,0,0.3,0c0.7-0.2,1.1-0.8,0.9-1.5c-0.4-1.5-0.8-3.4-1.3-5.2h13.5
	c0.7,0,1.2-0.6,1.2-1.2s-0.6-1.2-1.2-1.2h-7.3l2.9-3.5c0.5,0.2,1,0.3,1.5,0.3c1.2,0,2.2-0.5,2.7-0.9l4.5-4.4l3.3,10.1
	c0.2,0.5,0.7,0.9,1.2,0.9c0.1,0,0.3,0,0.4-0.1c0.7-0.2,1-0.9,0.8-1.6l-3.7-11.3l0.4-0.4c1.1,0.5,5.4,2.8,7.7,5.3
	c2.7,2.9,4.8,8,4.8,8.1c0.2,0.5,0.7,0.8,1.2,0.8c0.2,0,0.3,0,0.5-0.1C59.9,45.9,60.2,45.2,59.9,44.6z M12.4,4.8L12.4,4.8
	c2.3-1.1,4.3,0.1,5.6,1.4l-8.2,4.4C9.5,8.8,9.7,6.1,12.4,4.8z M10.6,13l8.9-4.8c0.5,1.1,2.4,6.4-1.7,8.6c-1,0.5-2,0.6-3,0.3
	C12.8,16.5,11.3,14.2,10.6,13z M36.6,36.9c-0.3,0.2-1.2,0.7-2.2,0c-0.8-0.6-0.7-1.2-0.5-1.5l14.5-18l4.4,3.9L36.6,36.9z"/>
</svg>
