<?xml version="1.0" encoding="utf-8"?>
<!-- Generator: Adobe Illustrator 28.2.0, SVG Export Plug-In . SVG Version: 6.00 Build 0)  -->
<svg version="1.1" id="Layer_2" xmlns="http://www.w3.org/2000/svg" xmlns:xlink="http://www.w3.org/1999/xlink" x="0px" y="0px"
	 viewBox="0 0 60 54" style="enable-background:new 0 0 60 54;" xml:space="preserve">
<path d="M59.94,44.56c-0.09-0.23-2.29-5.63-5.25-8.86c-2.21-2.41-5.82-4.48-7.62-5.42l9.39-9.06l-8.35-7.45L31.94,33.85l-0.06,0.08
	c-0.6,0.89-0.94,2.53,0.1,3.98l-4.08,4.9c-0.03,0.04-0.04,0.08-0.06,0.12h-3.73c-0.82-2.64-1.71-4.89-2.49-5.5
	c-1.47-1.15-9.91-4.92-11.59-5.67c-0.05-0.02-0.1-0.02-0.15-0.03l2.94-5.57c2.71,1.93,15.59,2.09,19.89,2.09c0.07,0,0.15,0,0.21,0
	c0.69,0,1.25-0.56,1.25-1.25c0-0.69-0.56-1.25-1.25-1.25c-0.05,0-0.13,0-0.2,0c-7.96,0-17.22-0.61-18.43-1.6
	c-0.09-0.07-0.2-0.14-0.3-0.21l2.18-4.13c0.93-0.04,1.87-0.29,2.79-0.78c5.25-2.77,4.1-9.03,2.75-12.02l4.25-2.28
	c0.61-0.33,0.84-1.08,0.51-1.69c-0.33-0.61-1.08-0.84-1.69-0.51l-4.53,2.42c-1.95-2.2-5.2-4.27-8.98-2.45
	c-4.2,2.02-4.43,6.45-3.82,9.3l-4.4,2.36c-0.61,0.33-0.84,1.08-0.51,1.69c0.23,0.42,0.66,0.66,1.1,0.66c0.2,0,0.4-0.05,0.59-0.15
	l4.14-2.21c0.84,1.47,2.65,4.08,5.23,5.16l-1.87,3.54c-3.48-1.24-8.7-1.93-9.98-2.09c-0.67-0.08-1.31,0.4-1.39,1.09
	c-0.08,0.69,0.4,1.31,1.09,1.39c2.59,0.32,6.56,1.01,9.1,1.84l-4.22,8.01l0.98,0.62c2.61,1.65,5.11,3.62,5.85,4.57
	c-3.46,3.26-6.89,12.07-7.28,13.11C5.64,52.04,5.96,52.76,6.61,53c0.15,0.06,0.3,0.08,0.45,0.08c0.5,0,0.98-0.31,1.17-0.8
	c1.07-2.81,4.43-10.55,7.04-12.5l0.25-0.25c0.3-0.39,0.41-0.89,0.31-1.4c-0.07-0.39-0.3-0.81-0.63-1.26
	c2.35,1.11,4.37,2.11,4.85,2.49c0.33,0.36,0.86,1.72,1.44,3.57h-1.37c-0.69,0-1.25,0.56-1.25,1.25s0.56,1.25,1.25,1.25h2.12
	c0.52,1.85,1.05,3.89,1.5,5.81c0.14,0.58,0.65,0.96,1.22,0.96c0.09,0,0.19-0.01,0.29-0.03c0.67-0.16,1.09-0.83,0.93-1.5
	c-0.35-1.5-0.81-3.37-1.33-5.24h13.53c0.69,0,1.25-0.56,1.25-1.25s-0.56-1.25-1.25-1.25h-7.3l2.9-3.48
	c0.52,0.21,1.04,0.31,1.53,0.31c1.18,0,2.19-0.5,2.73-0.93l4.54-4.38l3.3,10.11c0.17,0.53,0.66,0.86,1.19,0.86
	c0.13,0,0.26-0.02,0.39-0.06c0.66-0.21,1.01-0.92,0.8-1.58l-3.68-11.27l0.42-0.4c1.09,0.54,5.37,2.77,7.68,5.28
	c2.66,2.89,4.75,8.05,4.77,8.1c0.2,0.49,0.67,0.78,1.16,0.78c0.16,0,0.31-0.03,0.47-0.09C59.89,45.93,60.2,45.2,59.94,44.56z
	 M12.36,4.76L12.36,4.76c2.35-1.13,4.34,0.13,5.61,1.42l-8.19,4.39C9.53,8.8,9.66,6.06,12.36,4.76z M10.58,12.97L19.5,8.2
	c0.47,1.11,2.43,6.44-1.7,8.63c-1.02,0.54-2,0.64-2.98,0.31C12.83,16.45,11.31,14.23,10.58,12.97z M36.62,36.9
	c-0.26,0.19-1.2,0.74-2.2-0.03c-0.77-0.6-0.69-1.15-0.49-1.5l14.48-17.98l4.38,3.91L36.62,36.9z"/>
</svg>
