<?xml version="1.0" encoding="utf-8"?>
<!-- Generator: Adobe Illustrator 28.2.0, SVG Export Plug-In . SVG Version: 6.00 Build 0)  -->
<svg version="1.1" id="Layer_2_00000155834900485576906560000000208145507306251693_"
	 xmlns="http://www.w3.org/2000/svg" xmlns:xlink="http://www.w3.org/1999/xlink" x="0px" y="0px" viewBox="0 0 65 25"
	 style="enable-background:new 0 0 65 25;" xml:space="preserve">
<style type="text/css">
	.st0{fill:#990000;}
</style>
<path class="st0" d="M49.8,10.4c0-0.1,0.1-0.1,0.1-0.2V7.9l1.9-0.2c0.5-0.1,1-0.5,0.9-1.1s-0.5-0.9-1.1-0.9L40.4,6.9
	c-0.5,0.1-1,0.5-0.9,1.1c0,0.5,0.5,0.9,1,0.9c0,0,0.1,0,0.1,0l1.7-0.2l-0.6,2.2c0,0.1,0,0.2,0,0.2l-4.4,0.4l-0.2,0.2
	c0-0.1,0-0.1-0.1-0.2l-0.2-0.3c1.7-1.7,1.8-4.5,1.8-4.7c0-0.1-0.3-3.2-2.3-4.8c-1-0.8-2.3-1.1-3.7-0.9c-2.9,0.4-4.3,2.2-4.9,3.9
	l-5.1,0.1c-0.5,0-1,0.5-1,1c0,0.5,0.5,1,1,1c0,0,0,0,0,0l4.8-0.1l0,0.1c0.2,1,0.8,2.5,2,3.7c-2.6,0.2-8.8,0.6-12.8-0.1
	C12.3,9.8,6,9.5,3.2,9.4L4,7.4c0.2-0.5,0-1.1-0.5-1.3c-0.5-0.2-1.1,0-1.3,0.5l-1.9,4.6l1.5,0c0.1,0,7.2,0.2,12.5,0.8
	c0,0,0,0.1,0,0.1c0.7,1.9,1.8,5,2.2,6.7c-2.6,0.1-8.6-0.5-12.4-1l-1.7-0.2l1.9,4.6c0.2,0.4,0.5,0.6,0.9,0.6c0.1,0,0.3,0,0.4-0.1
	C6,22.6,6.2,22,6,21.5l-0.6-1.4c3.3,0.4,10.1,1.2,12.3,0.6l0.8-0.2v-0.8c0-1.6-1.4-5.5-2.1-7.4c1.9,0.3,4,0.4,6.1,0.4
	c3.5,0,6.9-0.3,7.9-0.4l2,2.7H20.7v8.5l14.9-2.6l0.7-0.7l3.3,4.5l3.6-4.8l3.2,2.9l6.7-8c0.3-0.4,0.3-0.9,0-1.3l2.9-0.4l0.5-1.2
	l8.3-0.9V9.1L49.8,10.4z M43.4,8.6L48.8,8v2.2c0,0.1,0,0.2,0.1,0.3L42.7,11L43.4,8.6z M35.6,12.1l0.2,0.2c0.1,0.1,0.2,0.2,0.2,0.2
	l-1.9,1.5l-1.2-1.7c0.2,0,0.3,0.1,0.4,0.1c0.2,0,0.3,0,0.5,0C34.5,12.4,35,12.3,35.6,12.1z M32.9,2.8c0.9-0.1,1.6,0,2.2,0.5
	c0.4,0.3,0.7,0.8,0.9,1.2l-6.1,0.2C30.4,3.8,31.3,3,32.9,2.8z M29.4,6.7l7.2-0.2c0,0.1,0,0.1,0,0.1c0,0.6-0.2,2.4-1.2,3.3
	c-0.5,0.4-1.1,0.6-2,0.6C30.5,10.2,29.6,7.5,29.4,6.7z M34.9,19.7l-12.7,2.2v-5.2h11l0.2-0.1l2,2.7L34.9,19.7z M39.6,21.6L37.7,19
	l2-2c0,0,0.1,0.1,0.1,0.1l1.8,1.6L39.6,21.6z M42.8,17.2l-1.6-1.4c0,0,0,0,0,0l0.5-0.4l3-0.4c-0.1,0.1-0.1,0.1-0.2,0.2L42.8,17.2z
	 M46.1,20.1l-1.8-1.6l1.7-2.3c0.3-0.4,0.2-1.1-0.2-1.4c-0.1-0.1-0.1-0.1-0.2-0.1l5.7-0.8L46.1,20.1z M54.9,11.9l-14,1.9l-4.1,3.9
	L35,15.3l2.9-2.3l17.2-1.5L54.9,11.9z"/>
</svg>
