<?xml version="1.0" encoding="utf-8"?>
<!-- Generator: Adobe Illustrator 28.2.0, SVG Export Plug-In . SVG Version: 6.00 Build 0)  -->
<svg version="1.1" id="Layer_2" xmlns="http://www.w3.org/2000/svg" xmlns:xlink="http://www.w3.org/1999/xlink" x="0px" y="0px"
	 viewBox="0 0 65 25" style="enable-background:new 0 0 65 25;" xml:space="preserve">
<style type="text/css">
	.st0{fill:#231F20;}
</style>
<path class="st0" d="M49.79,10.41c0.03-0.07,0.06-0.14,0.06-0.22V7.93l1.92-0.19c0.55-0.06,0.95-0.54,0.9-1.09
	c-0.05-0.55-0.53-0.95-1.09-0.9L40.43,6.86c-0.55,0.06-0.95,0.54-0.9,1.09c0.05,0.52,0.49,0.9,0.99,0.9c0.03,0,0.07,0,0.1,0
	l1.67-0.17l-0.57,2.17c-0.02,0.09-0.01,0.17,0.01,0.25l-4.4,0.38l-0.25,0.2c-0.02-0.05-0.03-0.11-0.06-0.16l-0.17-0.26
	c1.74-1.67,1.77-4.53,1.76-4.73c-0.01-0.13-0.28-3.18-2.3-4.8c-1.01-0.81-2.26-1.12-3.69-0.92c-2.93,0.41-4.34,2.25-4.92,3.92
	l-5.14,0.13c-0.55,0.01-0.99,0.47-0.97,1.02c0.01,0.54,0.46,0.98,1,0.98c0.01,0,0.02,0,0.03,0l4.75-0.12l0.01,0.09
	c0.18,1,0.77,2.52,1.95,3.72c-2.65,0.2-8.75,0.56-12.8-0.1C12.28,9.76,5.99,9.46,3.17,9.36l0.78-1.93c0.21-0.51-0.04-1.09-0.55-1.3
	C2.89,5.92,2.31,6.17,2.1,6.68l-1.87,4.61l1.45,0.03c0.08,0,7.16,0.18,12.49,0.82c0.01,0.03,0,0.06,0.01,0.08
	c0.74,1.89,1.84,5.01,2.2,6.71c-2.62,0.15-8.59-0.48-12.42-1.01l-1.72-0.24l1.9,4.61c0.16,0.39,0.53,0.62,0.93,0.62
	c0.13,0,0.26-0.02,0.38-0.08c0.51-0.21,0.75-0.79,0.54-1.31l-0.58-1.4c3.31,0.41,10.15,1.16,12.33,0.64l0.77-0.18V19.8
	c0-1.58-1.39-5.49-2.09-7.35c1.85,0.28,4.02,0.39,6.12,0.39c3.55,0,6.85-0.27,7.93-0.37l1.97,2.7H20.72v8.52l14.87-2.57l0.7-0.67
	l3.26,4.48l3.57-4.79L46.33,23l6.71-8.03c0.31-0.37,0.29-0.9-0.01-1.26l2.92-0.41l0.53-1.17l8.29-0.91V9.12L49.79,10.41z
	 M43.36,8.58l5.49-0.55v2.16c0,0.11,0.04,0.21,0.11,0.3l-6.25,0.54L43.36,8.58z M35.6,12.08l0.16,0.25c0.06,0.1,0.15,0.17,0.24,0.23
	l-1.89,1.51l-1.25-1.72c0.15,0.02,0.29,0.06,0.44,0.07c0.17,0.01,0.33,0.02,0.5,0.02C34.45,12.44,35.05,12.31,35.6,12.08z
	 M32.9,2.79c0.88-0.12,1.58,0.04,2.16,0.5c0.41,0.33,0.71,0.78,0.94,1.24l-6.09,0.15C30.38,3.85,31.26,3.02,32.9,2.79z M29.39,6.69
	l7.22-0.18c0.01,0.06,0.01,0.1,0.01,0.1c0,0.61-0.22,2.36-1.19,3.25c-0.49,0.45-1.13,0.64-1.96,0.57
	C30.51,10.18,29.59,7.49,29.39,6.69z M34.88,19.72l-12.66,2.19v-5.24h11.03l0.18-0.14l1.97,2.7L34.88,19.72z M39.57,21.56
	l-1.83-2.51l2.02-1.95c0.04,0.05,0.06,0.1,0.1,0.14l1.75,1.56L39.57,21.56z M42.82,17.19l-1.62-1.45c-0.01,0-0.01-0.01-0.02-0.01
	l0.45-0.43l2.97-0.41c-0.07,0.05-0.14,0.1-0.19,0.17L42.82,17.19z M46.12,20.13l-1.8-1.61l1.69-2.28c0.33-0.44,0.24-1.07-0.21-1.4
	c-0.07-0.05-0.14-0.07-0.22-0.1l5.69-0.79L46.12,20.13z M54.92,11.94l-13.99,1.95l-4.09,3.94l-1.86-2.55l2.92-2.33l17.23-1.49
	L54.92,11.94z"/>
</svg>
